<svg version="1.2" baseProfile="tiny-ps" xmlns="http://www.w3.org/2000/svg" viewBox="0 0 2000 2000" width="2000" height="2000">
	<title>logo-svg</title>
	<style>
		tspan { white-space:pre }
		.shp0 { fill: #ffffff } 
	</style>
	<g id="Layer 2">
		<g id="&lt;Group&gt;">
			<path id="&lt;Path&gt;" class="shp0" d="M1695.12 477.11C1633.56 445.3 1557.87 469.42 1526.06 530.98C1494.25 592.54 1518.36 668.23 1579.92 700.04C1641.48 731.85 1717.17 707.74 1748.98 646.18C1780.79 584.62 1756.68 508.93 1695.12 477.11Z" />
			<path id="&lt;Path&gt;" class="shp0" d="M659.63 1044.06C652.34 1041.72 645.28 1038.94 638.13 1036.7C634.62 1035.6 630.81 1034.5 627.19 1033.23C623.54 1031.95 619.96 1030.47 616.4 1028.97C609.31 1025.92 602.27 1022.91 595.1 1020.18C587.95 1017.41 580.5 1015.19 573.41 1012.1C569.86 1010.57 566.45 1008.75 563.11 1006.82L558.16 1003.84C556.53 1002.8 554.94 1001.71 553.33 1000.65C546.98 996.29 540.84 991.6 535.31 986.15L535.51 985.85C530.46 984.14 526.89 983.37 524.81 983.56C521.7 983.84 512.75 986.51 501.48 986.9C496.91 987.06 491.81 987.66 487.46 989.08C483.28 990.44 480.85 989.64 476.46 988.77C471.15 987.72 466.25 985.62 460.96 984.22C466.39 986.79 472.91 991.24 479.05 993.57C484.47 995.63 490.43 995.38 495.82 997.72C497.29 998.3 498.75 998.9 500.19 999.55C501.61 1000.22 502.99 1000.97 504.37 1001.74C509.83 1004.9 514.76 1008.86 519.95 1012.26C525.14 1015.67 530.52 1018.73 535.94 1021.9C537.31 1022.66 538.64 1023.51 539.98 1024.34L541.98 1025.59L543.92 1026.96C545.23 1027.86 546.49 1028.82 547.71 1029.86C548.96 1030.86 550.17 1031.91 551.33 1032.99C556 1037.28 560.41 1041.98 564.04 1047.21C570.28 1056.16 574.53 1061.64 583.72 1067.93C603.24 1081.29 631.72 1068.94 652.44 1062.8C671.01 1057.3 680.5 1058.42 689.42 1054.54C690.96 1053.88 693.88 1052.71 697.68 1051.25C692.46 1051.32 687.2 1050.77 682.08 1049.87C674.39 1048.5 666.91 1046.38 659.63 1044.06Z" />
			<path id="&lt;Path&gt;" class="shp0" d="M546.49 1037.83C544.47 1035.6 542.38 1033.53 540.2 1031.41C538.05 1029.29 535.87 1027.14 533.6 1025.09C529.1 1020.9 524.12 1017.23 518.74 1014.26C513.38 1011.25 507.41 1009.39 501.76 1007.19C490.55 1002.65 479.96 997.46 468 994.49C467.39 996.32 466.61 997.91 465.9 999.51C465.27 1001.26 464.44 1002.81 463.77 1004.46C463.13 1006.14 462.32 1007.68 461.65 1009.33C461.03 1010.99 460.17 1012.53 459.33 1014.12C458.49 1015.71 457.43 1017.23 456.52 1018.83C455.64 1020.45 454.73 1022.08 454.14 1023.81C453.57 1025.55 453.14 1027.33 452.85 1029.14C452.62 1030.96 452.55 1032.81 452.5 1034.65C452.59 1038.36 452.59 1041.99 452.43 1045.6C452.19 1056.58 451.85 1064.49 460.78 1072.93C470.94 1082.53 488.31 1080.96 501.14 1081.52C512.11 1081.99 523.19 1082.96 534.18 1082.85C539.55 1082.8 553.08 1080.98 567.19 1081.66C571.39 1081.87 575.59 1081.57 579.71 1080.97C571.4 1071.64 565.04 1061.1 557.79 1051.75C554.2 1046.96 550.55 1042.26 546.49 1037.83Z" />
			<path id="&lt;Path&gt;" class="shp0" d="M1200.47 918.22L1200.6 916.99C1197.85 914.47 1195.3 911.72 1192.92 908.85C1188.89 903.97 1185.38 898.67 1182.36 893.12C1179.36 887.56 1177.04 881.65 1175.05 875.68C1174.05 872.69 1173.15 869.66 1172.42 866.6C1171.7 863.53 1171.23 860.4 1170.76 857.29L1168.37 838.71C1167.56 832.55 1166.31 826.26 1166.5 819.81C1166.5 818.2 1166.69 816.6 1166.92 815C1167.1 813.4 1167.5 811.83 1167.89 810.26C1168.67 807.12 1169.8 804.06 1171.2 801.13C1174.39 794.61 1178.95 788.25 1185.18 784.59C1181.71 783.07 1182.35 778.53 1178.82 776.71C1174.42 774.44 1169.97 776.47 1158.67 776.81C1147.36 777.15 1135.88 771.84 1128.18 769.4C1120.47 766.97 1114.12 764.3 1110.19 764.13C1106.26 763.95 1095.04 767.12 1088.67 765.68C1082.3 764.25 1081.16 766.44 1071.79 769.02C1069.37 769.69 1066.84 769.98 1064.33 769.85C1062.81 769.77 1061.3 769.54 1059.83 769.15C1059.26 769 1058.7 768.82 1058.15 768.62C1057.55 768.4 1056.85 768.09 1056.19 768.18C1055.99 768.21 1055.73 768.38 1055.55 768.5C1054.38 769.28 1053.74 770.29 1053.01 771.46C1052.43 772.37 1051.91 773.32 1051.38 774.26C1050.2 776.32 1049.13 778.49 1047.85 780.59C1047.22 781.65 1046.56 782.71 1045.83 783.77C1045.05 784.86 1044.3 785.74 1043.55 786.7C1042.03 788.59 1040.53 790.52 1038.88 792.34C1035.61 796.01 1032.03 799.57 1027.8 802.51C1023.55 805.47 1018.6 807.63 1013.42 808.49C1010.69 808.91 1007.94 808.97 1005.23 808.74C1004.31 809.23 1003.38 809.71 1002.45 810.18C1000.37 811.26 998.25 812.25 996.05 813.15C993.85 814.05 991.57 814.86 989.18 815.44C987.94 815.76 986.94 815.98 985.8 816.21C984.69 816.44 983.57 816.64 982.41 816.81C977.8 817.48 972.89 817.6 968.12 817.87C967.33 817.93 966.53 817.94 965.74 817.91C956.66 821.9 947.25 825.02 937.72 827.64C932.63 829.05 927.49 830.3 922.32 831.41C917.16 832.52 911.96 833.46 906.71 834.12C896.22 835.47 885.62 835.84 875.14 836.84C864.65 837.86 854.16 838.84 843.7 840.12L828.06 841.99C822.86 842.6 817.69 843.19 812.55 843.91C791.8 846.82 773.75 852.73 754.35 860.81C745.38 864.55 737.6 864.19 728.55 866.65C723.69 867.97 718.22 870.09 714.95 874.13C712.42 877.25 712.22 880.67 709.06 883.38C708 884.3 707.02 885.18 706.68 886.6C706.52 887.24 706.73 887.83 706.57 888.44C706.27 889.57 705.03 890.46 704.1 891.04C701.89 892.4 699.19 892.98 697.17 894.64C694.35 896.96 691.67 904.22 688.38 909.54C685.09 914.87 673.05 924.58 670.11 928.19C667.16 931.8 643.06 944.46 630.21 950.52C626.24 952.39 622.2 954.34 618.59 956.87C617.29 957.79 615.42 959 614.65 960.47C611.76 966.02 625.21 969.4 628.59 970.1C635.66 971.57 643.06 973.83 650.24 974.21C662.49 974.88 674.44 978.35 686.88 978.02C701.58 977.63 715.82 980.23 730.33 978.22C738.74 977.06 747.25 975.3 754.97 971.64C756.83 970.75 758.56 969.69 760.2 968.53C765.25 964.96 769.54 960.44 774.92 957.19C789.53 948.37 802.59 937.14 817.41 928.69C833.28 919.63 850.18 912.4 867.07 905.5C876.46 901.76 885.86 898.09 895.26 894.52C904.57 890.9 914.27 887.33 923.91 884.24C933.62 881.19 943.43 878.52 953.32 876.27C963.23 874.09 973.21 872.25 983.21 870.73C993.2 869.12 1003.23 867.87 1013.25 866.6L1043.3 862.91C1053.3 861.67 1063.34 860.38 1073.3 859.02C1083.19 857.63 1093.43 855.76 1104.05 856.92C1114.66 858.16 1124.5 862.25 1133.48 867.24C1137.99 869.74 1142.34 872.47 1146.58 875.31C1150.8 878.18 1154.9 881.21 1158.94 884.26C1160.96 885.8 1162.97 887.31 1164.95 888.89C1166.97 890.5 1168.95 892.16 1170.85 893.88C1174.68 897.3 1178.25 900.92 1181.75 904.57C1187.79 910.85 1193.61 917.23 1200.05 923.01C1200.16 921.41 1200.29 919.81 1200.47 918.22Z" />
			<path id="&lt;Path&gt;" class="shp0" d="M937.25 706.53C936.82 716.75 935.15 731.62 948.47 733.92C954.02 734.88 959.74 735.05 965.53 735.81C971.31 736.54 977.33 737.76 983.21 738.71C989.11 739.63 995.02 740.36 1001.01 741.49C1004 742.09 1007.02 742.79 1009.94 743.91C1012.88 745.01 1015.65 746.47 1018.31 748.09C1023.61 751.33 1028.58 755.29 1032.53 760.34C1034.49 762.86 1036.22 765.65 1037.44 768.74C1038.04 770.28 1038.57 771.86 1038.91 773.52C1039.28 775.18 1039.39 776.73 1039.49 778.34C1039.58 780.31 1039.49 782.31 1039.2 784.28L1039.99 783.52C1041.75 781.77 1043.25 780.3 1044.76 778.43C1046.24 776.59 1047.76 774.7 1049.34 772.83C1050.25 771.74 1051.24 770.7 1052.28 769.74C1052.82 769.24 1053.38 768.77 1053.96 768.34C1054.34 768.07 1054.77 767.88 1055.13 767.6C1055.49 767.32 1055.73 766.89 1055.98 766.51C1056.53 765.69 1056.99 764.81 1057.33 763.88C1057.98 762.13 1058.19 760.23 1057.91 758.38C1057.9 758.31 1057.89 758.24 1057.87 758.16C1057.26 754.84 1055.74 751.62 1054.04 748.33C1052.34 745 1050.41 741.71 1049.07 737.57C1048.35 735.48 1048.08 733.13 1048.03 731.03C1047.94 728.9 1048.13 726.91 1048.27 724.99C1048.62 721.16 1049.06 717.61 1048.78 714.51C1048.53 711.42 1047.35 708.88 1045.18 707.08C1042.98 705.2 1039.7 704.06 1036.27 703.31C1032.82 702.57 1029.15 702.09 1025.44 701.92C1017.99 701.49 1010.4 702.4 1002.81 703.15C995.25 703.95 987.61 705.24 979.87 705.34C972.14 705.43 964.42 704.28 956.93 702.43C950.35 700.78 943.89 698.6 937.82 695.59L937.52 699.44C937.35 701.68 937.34 704.13 937.25 706.53Z" />
			<path id="&lt;Path&gt;" class="shp0" d="M1237.3 848.35C1237.43 846.79 1237.6 845.22 1237.91 843.64C1239.22 837.06 1243.37 835.23 1246.21 829.76C1242.82 832.92 1231.31 817.29 1229.29 814.85C1223 807.27 1220.16 808.59 1215.16 805.7C1210.03 802.72 1207.25 797.15 1202.36 793.96C1199.51 792.1 1192.91 790.39 1189.7 791.71C1187.43 792.65 1185.37 794.72 1183.74 796.44C1173.85 806.92 1169.85 824.44 1170.69 838.49C1171.04 844.59 1172.49 850.6 1174.61 856.34L1176.24 860.62C1176.84 862.03 1177.41 863.44 1177.96 864.85C1179.13 867.66 1180.23 870.47 1181.44 873.24C1183.84 878.79 1186.57 884.17 1189.23 889.57C1192.96 897.24 1196.97 904.72 1201.42 912.12L1201.72 910.93C1201.88 910.33 1202.02 909.71 1202.22 909.11L1202.88 907.34C1203.29 906.14 1203.88 905.02 1204.42 903.88C1206.66 899.35 1209.93 895.47 1213.48 892.12C1215.27 890.47 1217.19 888.98 1219.06 887.58C1219.99 886.88 1220.95 886.19 1221.75 885.56C1222.21 885.2 1222.43 885.01 1222.81 884.64C1223.17 884.29 1223.53 883.9 1223.88 883.51C1226.67 880.27 1229.18 876.52 1231.25 872.62C1234.38 866.73 1235.6 860.72 1236.68 854.22C1237 852.26 1237.13 850.31 1237.3 848.35Z" />
			<path id="&lt;Path&gt;" class="shp0" d="M748.65 1016.18C745.19 1014.35 741.79 1012.44 738.46 1010.42C731.8 1006.39 725.29 1001.94 718.13 998.8C710.98 995.62 703.43 993.61 695.69 992.51C691.81 991.9 687.9 991.37 684.03 990.67C680.15 990 676.3 989.19 672.44 988.38C664.74 986.75 657.02 985.05 649.44 982.78C647.55 982.21 645.65 981.63 643.78 981.01L638.28 979.27C634.55 978.13 630.74 976.97 626.98 975.57C623.22 974.17 619.46 972.57 615.96 970.45C612.46 968.36 609.14 965.73 606.84 962.39L607.29 961.97C606.97 961.88 606.66 961.79 606.34 961.68C603.14 960.57 602.67 963.56 602.63 966.78C602.58 970 597.26 966.71 595.65 967.23C594.57 967.57 592.65 969.55 589.88 973.16C582.65 973.56 575.81 974.26 569.35 975.25C564.23 976.03 559.47 978.08 554.46 979.23C549.9 980.28 545.02 979.87 540.34 979.16C535.94 978.49 529.6 975.85 525.46 976.55C530.92 979.93 536.93 982.38 542.24 986.02C547.21 989.42 550.84 992.96 556.23 995.85C559.57 997.65 562.94 999.38 566.25 1001.21C569.61 1002.95 572.9 1004.81 576.16 1006.73C582.68 1010.59 589.06 1014.88 596 1018.02C602.93 1021.17 610.22 1023.49 617.64 1025.21L623.2 1026.46C625.07 1026.83 626.92 1027.22 628.77 1027.64C632.5 1028.42 636.1 1029.21 639.95 1030.11C651.23 1032.81 662.09 1036.45 673.54 1038.27C685.17 1040.13 697.05 1038.55 708.68 1037.67C713.48 1037.31 718.05 1037.62 722.76 1037.4C738.02 1036.67 751.09 1030.6 765.9 1028.31C768.83 1027.86 771.89 1028.07 775.04 1028.74C769.57 1026.64 764.29 1024.14 759.09 1021.58C755.58 1019.82 752.08 1018.04 748.65 1016.18Z" />
			<path id="&lt;Path&gt;" class="shp0" d="M313.18 1028.47C314.79 1026.71 316.44 1024.98 318.18 1023.33C319.95 1021.71 321.73 1020.11 323.53 1018.53C325.37 1016.99 327.22 1015.46 329.14 1014.02C331.09 1012.61 333.17 1011.35 335.16 1010.03C337.23 1008.78 339.29 1007.55 341.23 1006.19C343.25 1004.91 345.19 1003.55 347.05 1002.06C348.99 1000.68 350.79 999.1 352.62 997.49C354.5 995.98 356.4 994.44 358.4 993.05C360.46 991.78 362.61 990.64 364.84 989.68C367.11 988.8 369.39 987.98 371.71 987.28C374.07 986.71 376.44 986.18 378.83 985.84C360.2 978.73 337.92 982.96 326.85 980.92C314.94 978.74 302.06 978.22 290.13 977.73C278.2 977.23 267.43 969.75 257.41 963.84C248.97 958.86 243.66 951.02 235.89 945.39C247.14 958.97 258.22 974.45 254.55 993.06C254.2 994.84 253.9 996.51 253.66 998.14C253.43 999.76 253.21 1001.37 253.38 1003C253.55 1004.66 254 1006.45 254.66 1008.12C255.32 1009.82 256.17 1011.47 256.92 1013.29C257.66 1015.11 258.29 1017.14 258.47 1019.25C258.68 1021.36 258.5 1023.45 258.08 1025.44C257.59 1027.46 256.77 1029.3 255.68 1031.01C254.62 1032.73 253.34 1034.34 251.79 1035.75C250.24 1037.14 248.39 1038.39 246.22 1038.96C244.12 1039.59 241.69 1039.37 240.02 1038.2C240.01 1039.05 240.15 1041.08 241.6 1042.08C242.84 1042.93 254.62 1044.08 276.93 1045.55C282.97 1048.88 287.36 1050.73 290.11 1051.1C291.46 1051.28 294.01 1051.56 297.51 1051.89C301.62 1043.28 307.03 1035.59 313.18 1028.47Z" />
			<path id="&lt;Path&gt;" class="shp0" d="M247.61 1031.97C249.44 1029.35 250.84 1026.27 252.4 1023.41C253.16 1021.94 253.97 1020.47 254.49 1018.92C255.01 1017.38 255.15 1015.7 254.71 1014.04C253.8 1010.69 251.36 1007.76 249.59 1004.14C248.7 1002.25 248.07 1000.18 247.85 998.14C247.6 996.1 247.68 994.12 247.76 992.25C247.96 988.5 248.09 985.19 247.7 982.34C247.5 980.85 247.19 979.3 246.75 977.96C246.28 976.62 245.69 975.37 244.76 974.14C243.02 971.8 240.22 969.62 237.69 967.03C236.79 966.97 235.69 966.77 234.21 966.27C228.23 964.26 224.3 961.42 218.95 960.28C213.6 959.13 202.32 960.05 197.19 958.48C192.06 956.91 182.11 954.21 173.24 951.51C164.37 948.82 150.84 941.55 145.49 939.87C140.15 938.19 135.92 941.68 138.2 947.72C139.68 951.63 144.25 955.9 147.29 958.42L147.5 958.12C152.14 959.86 156.53 961.51 161.04 963C165.53 964.51 170.08 965.99 174.64 967.95C179.15 969.92 183.28 972.35 187.46 974.48C189.55 975.55 191.65 976.54 193.74 977.53C194.77 978.01 195.78 978.45 196.89 978.92C197.99 979.38 199.22 979.86 200.45 980.52C201.68 981.17 202.81 982.05 203.77 982.96L206.38 985.58C208.09 987.27 209.86 988.79 211.92 989.87C213.94 990.95 216.3 991.56 218.67 992.39C221.04 993.2 223.58 994.18 225.84 996.21C227.76 997.88 229.16 1000.47 229.5 1003.2C229.57 1003.15 229.63 1003.1 229.7 1003.05C230.89 1002.37 232.24 1001.82 233.77 1001.64C235.25 1001.38 236.96 1001.61 238.4 1002.34C239.89 1003.02 240.92 1004.32 241.72 1005.48C242.45 1006.72 242.96 1007.92 243.48 1009.04C244.51 1011.26 245.62 1013.47 246.52 1015.93C247.46 1018.39 247.79 1021.14 247.28 1023.8C246.85 1026.46 245.92 1029.22 244.01 1031.45C243.02 1032.55 241.95 1033.52 240.57 1034.29C239.21 1035.06 237.64 1035.54 236.12 1035.64C235.56 1035.66 235.02 1035.63 234.5 1035.57C236.61 1036.55 238.45 1037.29 240.03 1037.81L240.13 1037.46C243.89 1036.94 245.72 1034.55 247.61 1031.97Z" />
			<path id="&lt;Path&gt;" class="shp0" d="M242.58 1016.31C243.09 1014.21 242.81 1011.93 241.47 1010.24C240.85 1009.37 239.91 1008.79 239.01 1008.41C238.06 1008.13 237.21 1008.02 236.49 1008.07C235.12 1008.08 233.71 1007.93 231.78 1008.29C230.85 1008.44 229.86 1008.65 228.79 1008.88C228.73 1009.04 228.67 1009.22 228.6 1009.37C228.01 1010.76 227.27 1011.92 226.51 1012.97C225 1015.06 223.49 1016.71 222.37 1018.47C221.35 1020.2 220.8 1022.21 221.14 1024.68L220.81 1024.83C221.72 1026.38 223 1028.35 225.63 1030.36C226.61 1031.11 227.63 1031.8 228.65 1032.44L228.78 1032.03C231.3 1031.55 233.37 1031.05 234.75 1030.09C235.44 1029.63 235.98 1029.12 236.49 1028.57C236.98 1028.01 237.49 1027.3 237.96 1026.65C238.88 1025.28 239.9 1023.8 240.67 1022.05C241.34 1020.28 242.04 1018.4 242.58 1016.31Z" />
			<path id="&lt;Path&gt;" class="shp0" d="M885.95 1001.52C898.6 989.46 912.2 978.5 927.79 970.48C935.52 966.49 943.45 962.95 951.48 959.75C959.48 956.53 967.71 953.69 976.02 951.35C984.33 948.99 992.76 947.14 1001.19 945.49C1018.07 942.21 1035.01 939.73 1051.79 936.39C1060.16 934.71 1068.54 932.87 1076.76 930.71C1084.95 928.54 1092.97 925.74 1101.14 923.15C1109.31 920.58 1117.7 918.18 1126.4 916.89C1130.74 916.23 1135.13 915.82 1139.54 915.67C1141.74 915.61 1143.95 915.68 1146.15 915.75C1148.35 915.94 1150.55 915.99 1152.74 916.3C1169.24 918.38 1184.15 924.49 1199.78 927.88C1199.82 926.75 1199.88 925.62 1199.95 924.49C1192.46 919.43 1185.73 913.29 1179.07 907.35C1175.32 904 1171.56 900.7 1167.7 897.58C1165.78 896.02 1163.8 894.55 1161.8 893.13L1155.64 888.79C1151.53 885.91 1147.39 883.12 1143.2 880.44C1139.02 877.74 1134.77 875.18 1130.43 872.87C1121.74 868.27 1112.68 864.39 1103.24 862.89C1093.79 861.27 1083.81 862.28 1073.72 863.02L1058.61 863.98C1053.59 864.36 1048.57 864.75 1043.55 865.25C1023.5 867.16 1003.57 870.3 983.94 874.62C964.32 878.99 944.98 884.32 926.05 890.71C916.57 894 907.42 897.62 898.03 901.53C888.68 905.36 879.27 908.94 869.93 912.67C861.05 916.12 852.08 922.02 843.64 926.62C829.79 934.16 819.54 944.62 808.51 955.83C790.83 973.79 770.36 992.73 744.45 995.72C746.34 995.5 751.54 1000.55 753.56 1001.38C756.96 1002.8 759.75 1002.91 763.3 1003.84C771.89 1006.1 780.3 1009.81 786.74 1016.06C791.2 1020.4 788.83 1024.05 790.37 1029.04C792.23 1035.04 800.87 1040.14 806.29 1042.58C810.88 1044.65 817.77 1047.36 818.3 1053.24C818.59 1056.52 815.21 1058.49 817.38 1062.08C821.44 1068.8 830.05 1061.13 833.58 1057.79C840.08 1051.66 845.4 1043.93 851.63 1037.3C862.78 1025.44 873.93 1012.98 885.95 1001.52Z" />
			<path id="&lt;Path&gt;" class="shp0" d="M438.14 1068.05C437.87 1063.44 438.16 1058.8 439.25 1054.19C440.8 1047.61 442.73 1043.02 443.22 1036.37C444.14 1023.85 453.61 1005.73 462.77 997.26C464.2 995.94 465.84 994.8 467.53 993.83L467.79 994.07C467.79 994.07 464.85 989.84 458.44 987.61C452.03 985.38 430.92 982.85 413.3 984.01C402.41 984.72 392.35 985.45 386.25 985.9L386.33 986.26C384.21 987.54 382.08 988.58 379.95 989.52C377.87 990.64 375.78 991.64 373.68 992.56C371.62 993.61 369.57 994.63 367.48 995.54C365.45 996.61 363.39 997.59 361.22 998.38C359.09 999.28 356.91 1000.1 354.69 1000.91C352.54 1001.84 350.39 1002.82 348.37 1003.99C346.4 1005.25 344.51 1006.65 342.7 1008.13C333.95 1015.95 328.15 1023.2 322.58 1033.37C317.1 1043.38 310.66 1053.64 300.87 1059.95C327.4 1042.84 370.36 1061.44 398 1068.16C409.77 1071.02 433.54 1071.86 440.91 1083.57C439.49 1078.47 438.45 1073.28 438.14 1068.05Z" />
			<path id="&lt;Path&gt;" class="shp0" d="M218.76 1017.13C219.38 1014.38 220.72 1012.09 221.69 1010.06C222.66 1008.02 223.3 1006.27 223.15 1004.82C223.03 1003.25 222.52 1001.8 221.44 1000.34C220.4 998.84 218.7 997.34 216.83 995.93C214.94 994.51 212.84 993.26 210.72 991.87C208.62 990.48 206.68 988.9 204.78 987.42C203.84 986.68 202.84 985.96 201.88 985.37C200.96 984.78 199.98 984.44 198.98 984.2C197 983.75 194.38 983.69 191.86 983.02C189.4 982.44 187.03 981.61 184.71 980.74C180.07 978.99 175.62 977.05 171.39 974.96C167.22 972.87 162.82 970.75 158.61 968.15C155.14 966 151.8 963.53 148.9 960.62C147.52 960.57 145.21 960.47 143.07 960.23C139.75 959.87 133.78 956.78 127.57 956.27C121.35 955.76 112.48 953.06 111.18 953.47C109.89 953.89 107.28 956.86 108.81 962.24C110.35 967.63 116.23 969.32 123.71 972.1C129.79 974.37 146.19 976.16 150.9 976.97C154.04 977.51 162.66 979.99 176.77 984.4C170.82 985.46 166.84 986.2 164.83 986.6C161.82 987.2 156.42 989.81 152.63 992.45C148.83 995.08 118.46 1003.15 113.59 1006.31C108.72 1009.46 113.02 1016.82 117.19 1018.16C121.36 1019.5 127.81 1018.52 133.41 1017.09C139.01 1015.66 146.87 1013.51 152.47 1012.08C158.07 1010.66 164.75 1008.71 171.41 1008.37C175.85 1008.14 182.32 1005.72 190.82 1001.11C194.92 1004.67 196.75 1007.24 196.3 1008.8C195.63 1011.16 192.57 1014.98 189.31 1017.62C186.06 1020.26 180.97 1023.84 178.55 1027.99C176.14 1032.15 172.98 1035.11 170.58 1038.19C168.18 1041.27 160.58 1048.14 157.86 1050.79C155.14 1053.44 153.78 1058.68 159.55 1060.58C165.32 1062.48 170.85 1058.58 172.93 1055.61C175 1052.63 184.66 1044.92 193.11 1039.03C201.56 1033.13 203.69 1025.95 205.47 1023.72C207.25 1021.5 212.24 1022.81 216.5 1021.87C217.64 1021.62 218.36 1021.77 218.95 1022.21C218.84 1021.94 218.74 1021.67 218.71 1021.38C218.37 1019.99 218.49 1018.53 218.76 1017.13Z" />
			<path id="&lt;Path&gt;" class="shp0" d="M1515.88 1621.59C1519.91 1620.52 1523.85 1618.62 1527.62 1615.72C1528.85 1614.73 1530.13 1613.82 1531.27 1612.76C1533.63 1610.69 1535.52 1608 1536.5 1604.97C1537.53 1601.93 1537.37 1598.55 1537.79 1595.35C1538 1593.75 1538.38 1592.18 1538.89 1590.63C1542.47 1579.86 1542.77 1571.74 1536.44 1562.1C1529.77 1551.92 1522.68 1542.09 1516.49 1531.58C1507.99 1517.14 1501.52 1509.65 1496.48 1499.96C1493.76 1494.73 1489.75 1488.08 1486.09 1482.62C1486.94 1486.31 1487.09 1490.19 1486.7 1494.01C1486.2 1499 1484.73 1503.89 1482.61 1508.41C1480.47 1512.93 1477.52 1516.96 1474.37 1520.69C1472.78 1522.56 1471.13 1524.35 1469.35 1526.01C1467.58 1527.68 1465.64 1529.16 1463.75 1530.66C1459.89 1533.58 1456.11 1536.43 1452.61 1539.64C1449.08 1542.81 1445.96 1546.59 1442.28 1549.71C1440.45 1551.26 1438.47 1552.63 1436.4 1553.84C1434.35 1555.08 1432.24 1556.21 1430.07 1557.24C1421.84 1561.12 1414.13 1560.45 1405.26 1560.22C1409.44 1562.64 1414.09 1563.01 1418.46 1565.21C1434.09 1573.07 1445.58 1587.54 1458.8 1599.01C1473.25 1611.56 1495.67 1626.96 1515.88 1621.59Z" />
			<path id="&lt;Path&gt;" class="shp0" d="M1426.32 1548.87C1430.55 1547.71 1434.61 1545.8 1438.39 1543.6C1453.47 1534.83 1467.32 1520.26 1475.7 1504.95C1479.34 1498.31 1482.43 1491.02 1480.94 1483.32C1479.22 1474.42 1474.21 1469.33 1468.31 1462.94C1466.23 1460.68 1460.1 1445.09 1455.74 1436.93C1451.39 1428.77 1420.35 1395.59 1413.18 1387.15C1406.01 1378.72 1391.34 1360.2 1387.88 1355.46C1384.42 1350.71 1381.79 1345.51 1380.92 1340.33C1380.34 1336.88 1378.55 1333.49 1375.54 1330.16L1375.26 1330.39C1370.96 1327.13 1366.14 1325.55 1361.32 1325.12C1360.12 1324.99 1358.93 1325 1357.77 1325.05C1356.58 1325.1 1355.6 1325.21 1354.47 1325.54C1353.35 1325.87 1352.22 1326.11 1351.12 1326.58C1350.01 1326.95 1348.91 1327.43 1347.83 1327.95C1343.47 1329.96 1339.16 1332.63 1335.07 1335.74C1328.16 1340.98 1325.78 1347.83 1320.27 1354.22C1313.29 1362.32 1308.25 1371.01 1304.62 1381.34C1298.98 1397.39 1295.56 1410.14 1297.04 1427.17C1298.28 1441.44 1307.15 1454.92 1314.82 1466.81C1333.11 1495.17 1365.35 1508.05 1384.19 1528.05C1392.83 1537.22 1400.38 1547.27 1413.38 1549.62C1417.77 1550.42 1422.12 1550.01 1426.32 1548.87Z" />
			<path id="&lt;Path&gt;" class="shp0" d="M904.4 1097.15C916.26 1127.96 951.14 1141.18 981.44 1127.67C1008.94 1115.41 1026.14 1085.89 1040.9 1061.12C1045.03 1054.13 1049.33 1047.21 1053.61 1040.29C1062.02 1026.35 1071.29 1012.83 1081.52 1000.12C1086.77 993.65 1093.33 988.56 1098.59 982.65C1099.91 981.18 1101.15 979.67 1102.26 978.1L1105.69 973.11C1108.01 969.76 1110.37 966.41 1112.91 963.14C1117.99 956.65 1123.86 950.41 1131.05 945.69C1134.62 943.32 1138.51 941.38 1142.54 939.9C1146.54 938.48 1150.5 937.4 1154.54 936.43C1169.47 932.97 1184.6 931.95 1199.65 931.77C1199.67 930.88 1199.7 929.99 1199.73 929.11C1192.12 928.67 1184.61 927.19 1177.21 925.78C1168.81 924.19 1160.47 922.49 1152.2 921.88C1143.93 921.28 1135.62 921.84 1127.42 923.21C1119.21 924.63 1111.06 926.78 1102.8 928.93C1094.54 931.06 1086.15 933.15 1077.61 934.61L1052.21 938.7C1035.33 941.49 1018.55 944.88 1002.1 949.35C985.65 953.89 969.62 959.35 954.08 966.03C908.96 985.52 874.23 1016.9 851.09 1060.39C845.3 1071.26 839.2 1081.95 830.27 1090.23C842.62 1085.98 855.71 1073.22 869.19 1073.5C879.44 1073.71 892.5 1079.21 899.12 1087.33C901.57 1090.33 903.08 1093.71 904.4 1097.15Z" />
			<path id="&lt;Path&gt;" class="shp0" d="M1771.38 1803.22C1770.43 1793.55 1753.83 1767.14 1745.17 1756.72C1736.51 1746.31 1727.82 1738.03 1719.51 1733.2C1711.2 1728.37 1697.81 1718.75 1678.52 1700.67C1659.23 1682.6 1639.35 1660.44 1631.32 1650.89C1623.29 1641.34 1617.55 1636.76 1610.53 1632.59C1608.8 1631.56 1606.84 1630.41 1604.74 1629.19C1606.48 1631.01 1607.76 1633.38 1608.42 1635.84C1609.56 1639.93 1609.33 1644.19 1608.4 1648.1C1607.44 1652.02 1605.58 1655.59 1603.4 1658.85C1602.28 1660.48 1601.09 1662.05 1599.7 1663.47C1598.33 1664.86 1596.59 1666.16 1595.08 1667.16C1591.98 1669.19 1589.09 1671.45 1586.66 1674.18C1584.21 1676.89 1582.44 1680.28 1580.21 1683.19C1579.09 1684.64 1577.85 1685.97 1576.52 1687.21C1575.2 1688.47 1573.84 1689.67 1572.42 1690.83C1571.01 1691.99 1569.55 1693.12 1568 1694.15C1566.57 1695.14 1565.07 1696.07 1563.43 1696.87C1568.28 1701.56 1566.79 1708.43 1572.71 1716.22C1579.46 1725.11 1585.25 1725.4 1590.13 1729.55C1595.01 1733.69 1599.18 1743.4 1605.28 1752.5C1611.38 1761.6 1632.32 1784.84 1647.56 1801.36C1662.79 1817.87 1683.39 1834.46 1705.6 1842.7C1727.82 1850.93 1744.51 1854.16 1757.12 1842.31C1769.73 1830.46 1772.32 1812.89 1771.38 1803.22Z" />
			<path id="&lt;Path&gt;" class="shp0" d="M1575.48 1677.44C1579.06 1676.36 1582.37 1674.78 1585.03 1672.52C1587.82 1670.14 1590.17 1667.32 1592.34 1664.3C1593.49 1662.8 1594.22 1661.4 1595.1 1659.92L1596.33 1657.69L1597.48 1655.43C1598.93 1652.37 1599.98 1649.17 1600.95 1646.06C1601.93 1642.94 1602.65 1639.81 1602.78 1636.65C1602.9 1633.5 1602.3 1630.32 1600.37 1627.05L1600.61 1626.77C1595.2 1623.6 1589.38 1620.15 1584.55 1617C1576.46 1611.74 1556.95 1594.1 1555.74 1588.07C1554.68 1582.78 1548.56 1578.76 1547.09 1577.86C1546.92 1581.34 1546.53 1584.45 1546.03 1587.6C1545.77 1589.19 1545.47 1590.76 1545.1 1592.33C1544.75 1593.92 1544.27 1595.48 1543.6 1597.01C1542.24 1600.07 1540.13 1602.9 1538.65 1605.87C1537.14 1608.83 1535.94 1611.92 1534.46 1615.1C1533 1618.31 1531.01 1621.16 1528.68 1623.63C1526.4 1626.16 1523.95 1628.58 1521.06 1630.5C1513.1 1635.78 1501.5 1636.6 1492.34 1633.94C1498.54 1637.01 1504.86 1639.87 1510.8 1643.44C1515.75 1646.42 1518.93 1650.46 1523.09 1654.39C1533.73 1664.41 1538.89 1679.44 1556.64 1679.64C1562.42 1679.71 1569.34 1679.3 1575.48 1677.44Z" />
			<path id="&lt;Path&gt;" class="shp0" d="M1015.66 1237.33C1020.74 1201.1 1049.39 1171.36 1063.94 1138.56L1073.05 1117.51L1075.32 1112.23C1076.05 1110.53 1076.68 1108.89 1077.24 1107.12C1078.33 1103.6 1079.13 1099.89 1079.93 1096.14C1081.48 1088.67 1082.97 1080.84 1086.78 1073.78C1087.24 1072.9 1087.85 1072.09 1088.38 1071.24C1088.95 1070.42 1089.62 1069.66 1090.23 1068.87L1094.15 1064.61C1096.82 1061.83 1099.44 1059 1102.19 1056.31L1134.7 1023.69C1140.09 1018.29 1145.34 1012.89 1150.5 1007.3L1158.29 998.83C1160.95 996.02 1163.69 993.25 1166.55 990.57C1172.22 985.24 1178.79 980.41 1185.71 976.97C1189.03 975.16 1192.26 973.27 1195.21 970.97C1197.54 969.2 1199.69 967.18 1201.65 964.95C1201.49 963.34 1201.35 961.72 1201.17 960.11C1200.24 951.19 1199.55 942.17 1199.64 933.09C1184.86 935.6 1170.07 937.73 1155.95 941.85C1152.14 942.94 1148.31 944.22 1144.72 945.65C1141.16 947.04 1137.76 948.82 1134.62 951.01C1128.31 955.39 1122.79 960.97 1117.55 966.97C1114.93 969.98 1112.35 973.07 1109.78 976.2L1105.85 980.91C1104.46 982.54 1102.96 984.04 1101.43 985.46C1095.29 991.1 1088.54 995.61 1083.31 1001.62C1078.09 1007.76 1073.27 1014.29 1068.93 1021.1C1064.49 1027.87 1060.84 1035.06 1057.05 1042.25L1045.98 1063.94C1042.26 1071.16 1038.44 1078.33 1034.57 1085.48L1028.72 1096.19C1026.76 1099.74 1024.82 1103.33 1022.58 1106.94C1020.39 1110.53 1017.89 1113.92 1015.27 1117.18C1012.64 1120.44 1009.88 1123.59 1006.94 1126.54C1001.05 1132.43 994.81 1137.84 988.42 1142.93C985.21 1145.45 982.1 1148.02 978.59 1150.48C968.89 1157.1 942.22 1171.95 929.84 1165.86C942.15 1171.92 955.66 1175.85 963.66 1187.77C969 1195.73 965.21 1202.07 967.31 1210.49C969.23 1218.18 973.95 1217.74 980.43 1219.19C994.99 1222.45 1005.38 1227.82 1015.66 1237.33Z" />
			<path id="&lt;Path&gt;" class="shp0" d="M1084.06 1292.57C1086.67 1275.22 1076.99 1257.76 1072.39 1240.99C1070.07 1232.77 1069.2 1224.09 1070.13 1215.58C1071.07 1207.08 1073.6 1198.75 1077.88 1191.37C1082.21 1184 1087.94 1177.95 1093.47 1171.91C1098.99 1165.85 1104.47 1159.81 1108.65 1152.87C1113 1145.92 1117.14 1138.84 1121.53 1131.89C1125.88 1124.91 1130.24 1117.96 1135 1111.17C1137.51 1107.61 1140.72 1104.27 1144.68 1101.89C1148.62 1099.46 1153.07 1098.18 1157.33 1097.42C1159.46 1097.04 1161.58 1096.78 1163.67 1096.57C1165.77 1096.36 1167.8 1096.18 1170.02 1096.14C1171.11 1096.12 1172.2 1096.05 1173.29 1096.06L1176.53 1096.24C1178.71 1096.28 1180.83 1096.7 1182.97 1096.95C1185.1 1097.29 1187.19 1097.74 1189.28 1098.21C1191.32 1098.8 1193.41 1099.29 1195.41 1099.98C1197.41 1100.65 1199.44 1101.28 1201.39 1102.05C1203.36 1102.78 1205.32 1103.52 1207.22 1104.37C1214.88 1107.69 1222.27 1111.34 1229.57 1114.93C1233.22 1116.7 1236.87 1118.47 1240.56 1120.03C1242.4 1120.86 1244.25 1121.58 1246.11 1122.33C1247.96 1123.09 1249.99 1123.81 1251.89 1124.64C1258.76 1127.5 1265.36 1131.03 1271.54 1135.15C1271.14 1134.75 1270.74 1134.35 1270.35 1133.96C1263.89 1127.47 1257.24 1121.19 1250.54 1114.98C1243.54 1108.69 1237.19 1101.48 1231.68 1093.87C1220.62 1078.64 1212.29 1061.38 1208.17 1043.04C1207.18 1038.45 1206.32 1033.83 1206 1029.14C1205.76 1026.79 1205.69 1024.49 1205.63 1022.19L1205.33 1015.27C1204.93 1006.06 1204.37 996.86 1203.71 987.66C1203.17 980.7 1202.54 973.74 1201.84 966.79C1200.4 968.96 1198.75 971.01 1196.89 972.87C1194.09 975.66 1190.95 978.1 1187.71 980.26C1184.45 982.42 1181.52 984.48 1178.63 986.91C1175.77 989.29 1173.1 991.91 1170.47 994.58C1167.85 997.27 1165.34 1000.1 1162.84 1002.96L1155.25 1011.6C1150.15 1017.43 1144.59 1022.91 1138.84 1028.06C1127.33 1038.37 1114.9 1047.42 1103.83 1057.98C1101.08 1060.63 1098.35 1063.31 1095.76 1066.11L1091.95 1070.37C1091.41 1071.1 1090.8 1071.78 1090.31 1072.56C1089.86 1073.36 1089.34 1074.11 1088.95 1074.95C1087.27 1078.23 1086.24 1081.84 1085.53 1085.53C1084.81 1089.22 1084.33 1092.99 1083.84 1096.8C1083.36 1100.62 1082.87 1104.48 1082.01 1108.38C1081.58 1110.32 1081.01 1112.32 1080.37 1114.2L1078.45 1119.64C1075.86 1126.88 1073.11 1134.07 1070.21 1141.21C1065.45 1152.95 1060.61 1165.36 1055.26 1176.91C1049.87 1188.57 1043.63 1199.5 1039.94 1211.8C1033.98 1231.68 1034.97 1252.84 1048.12 1268.5C1055.47 1277.26 1060.92 1288.31 1070.28 1295.2C1073.16 1297.31 1082.64 1300.4 1079.01 1306.41C1081.79 1301.81 1083.36 1297.19 1084.06 1292.57Z" />
			<path id="&lt;Path&gt;" class="shp0" d="M1343.12 1242.46C1340.49 1234.21 1337.88 1226.17 1334.26 1218.32C1333.13 1215.87 1331.81 1213.5 1330.54 1211.12C1327.99 1206.38 1325.35 1201.67 1322.57 1197.05C1321.98 1196.06 1321.36 1195.09 1320.76 1194.11C1318.38 1192.29 1315.85 1190.7 1313.19 1189.33C1307.3 1186.2 1300.97 1183.92 1294.55 1181.85C1281.55 1177.88 1268.5 1174.11 1255.29 1171.86C1251.99 1171.26 1248.69 1170.75 1245.38 1170.33C1242.07 1169.97 1238.75 1169.64 1235.44 1169.46C1228.82 1169.05 1222.19 1169.27 1215.68 1170.25C1209.17 1171.2 1202.85 1173.06 1196.8 1175.61C1190.82 1178.28 1185.06 1181.64 1179.96 1185.96C1174.86 1190.3 1170.4 1195.31 1166.41 1200.9C1162.32 1206.41 1158.27 1211.93 1154.51 1217.63C1150.8 1223.35 1147.46 1229.29 1144.85 1235.51C1142.21 1241.7 1140.33 1248.13 1138.96 1254.63C1136.18 1267.65 1135.08 1281.1 1135.36 1294.56C1135.5 1301.25 1136.01 1307.93 1136.77 1314.58C1137.88 1324.35 1137.49 1333.32 1144.08 1340.93C1146.62 1343.87 1152.61 1346.97 1162.53 1353.99C1165.42 1356.04 1182.36 1364.85 1181.09 1369.69C1181.65 1367.57 1181.91 1365.53 1181.92 1363.56C1181.95 1355.36 1177.59 1348.43 1171.68 1342.43C1170.26 1341 1169.11 1339.42 1168.16 1337.78C1166.28 1334.49 1165.15 1331.12 1163.95 1328.02C1163.37 1326.4 1162.75 1325.13 1162.11 1323.34C1161.81 1322.5 1161.47 1321.66 1161.2 1320.81L1160.45 1318.23C1159.93 1316.52 1159.62 1314.76 1159.27 1313.01C1159.07 1311.25 1158.73 1309.5 1158.65 1307.72C1158.18 1300.65 1158.82 1293.49 1160.99 1286.75C1163.1 1280.05 1166.49 1273.64 1171.54 1268.74C1172.17 1268.13 1172.74 1267.46 1173.43 1266.92L1175.5 1265.29C1176.87 1264.19 1178.3 1263.35 1179.67 1262.32L1188.06 1256.55C1193.7 1252.76 1199.28 1248.86 1205.04 1245.24C1210.78 1241.57 1216.57 1237.96 1222.51 1234.62C1225.46 1232.92 1228.47 1231.33 1231.47 1229.72C1234.43 1228.16 1237.57 1226.53 1240.8 1225.16C1247.22 1222.36 1253.95 1220.25 1260.88 1218.86C1264.37 1218.23 1267.89 1217.72 1271.47 1217.63C1275.04 1217.47 1278.65 1217.57 1282.25 1218.06C1285.84 1218.53 1289.39 1219.47 1292.85 1220.66C1294.54 1221.35 1296.3 1222.02 1297.89 1222.83C1299.51 1223.61 1301.05 1224.54 1302.59 1225.47C1305.62 1227.38 1308.48 1229.53 1311.14 1231.85C1317.04 1237.09 1321.02 1244.15 1327.1 1249.14C1334.82 1255.47 1346.15 1261.27 1355.08 1265.64C1347.68 1260.73 1345.6 1250.27 1343.12 1242.46Z" />
			<path id="&lt;Path&gt;" class="shp0" d="M1128.83 1294.79C1129.19 1290.46 1129.29 1286.73 1129.27 1284.41C1129.28 1280.91 1129.36 1277.42 1129.62 1273.92C1130.08 1266.93 1131.2 1259.96 1133.12 1253.17C1135.05 1246.39 1137.82 1239.84 1141.27 1233.75C1144.7 1227.65 1148.59 1221.92 1152.57 1216.31C1156.53 1210.68 1160.58 1205.15 1164.41 1199.48C1165.36 1198.06 1166.3 1196.64 1167.32 1195.22C1168.29 1193.77 1169.28 1192.34 1170.37 1190.97C1172.45 1188.16 1174.81 1185.56 1177.28 1183.04C1182.22 1178.04 1187.97 1173.7 1194.3 1170.37C1200.66 1167.11 1207.53 1164.81 1214.54 1163.54C1228.58 1160.9 1242.97 1161.63 1256.69 1164.27C1270.44 1166.98 1283.66 1171.35 1296.49 1176.5C1302.92 1179.14 1309.32 1182.14 1315.12 1186.18C1315.5 1186.43 1315.86 1186.7 1316.22 1186.96C1315.9 1186.47 1315.58 1185.96 1315.25 1185.47C1312.7 1181.69 1310.03 1178.06 1307.23 1174.47C1299.5 1164.79 1291.22 1155.51 1282.63 1146.5C1272.37 1139.55 1261.46 1133.83 1249.86 1129.96C1247.96 1129.27 1246.08 1128.74 1244.1 1128.07C1242.11 1127.4 1240.09 1126.78 1238.16 1126.02C1234.23 1124.57 1230.43 1122.92 1226.63 1121.3C1219.06 1118.03 1211.73 1114.47 1204.26 1111.5C1196.84 1108.44 1189.33 1105.8 1181.69 1104.38C1179.77 1104.1 1177.86 1103.65 1175.94 1103.57L1173.06 1103.32C1172.1 1103.28 1171.15 1103.32 1170.19 1103.31C1168.31 1103.28 1166.25 1103.39 1164.27 1103.53C1162.28 1103.67 1160.33 1103.86 1158.43 1104.14C1154.62 1104.69 1151.05 1105.68 1147.91 1107.42C1144.74 1109.13 1142.06 1111.71 1139.64 1114.66C1134.64 1121.02 1129.64 1127.52 1124.82 1134.11C1120.04 1140.74 1115.23 1147.37 1110.71 1154.2C1106.16 1161.15 1100.56 1167.29 1095.22 1173.46C1089.92 1179.66 1084.73 1186.05 1081.41 1193.22C1078.11 1200.39 1076.54 1208.26 1076.13 1216.05C1075.7 1223.87 1076.64 1231.72 1078.57 1239.3C1079.54 1243.11 1080.86 1246.76 1082.5 1250.38C1084.09 1254.02 1085.87 1257.61 1087.82 1261.15C1091.65 1268.26 1095.96 1275.3 1099.53 1282.83C1101.32 1286.58 1102.88 1290.47 1104.14 1294.44C1105.25 1298.16 1106.36 1301.69 1106.91 1305.52C1107.2 1307.46 1116.87 1327.46 1115.39 1327.79C1124.43 1325.75 1127.76 1307.64 1128.83 1294.79Z" />
			<path id="&lt;Path&gt;" class="shp0" d="M1321.31 805.66C1320.33 807.41 1318.77 808.82 1317.24 809.96C1315.68 811.1 1314.18 812.09 1312.86 813.23C1311.57 814.37 1310.32 815.59 1309.46 816.93C1309.03 817.56 1308.65 818.25 1308.25 818.99C1307.91 823.88 1308.32 828.6 1309.64 833.11C1311.38 839.26 1314.41 844.94 1317.82 850.54C1321.17 856.16 1324.93 861.92 1329.92 866.53C1335 871.13 1340.25 875.65 1345.65 879.9L1353.73 886.21C1356.39 888.32 1359.01 890.42 1361.7 892.39C1371.01 899.22 1380.75 902.67 1392.39 902.55C1401.12 902.47 1410.21 903.37 1418.97 903.68C1423.62 903.84 1431.53 901.55 1433.08 896.65C1436.93 896.16 1439.04 893.27 1439.73 892.14C1436.95 893.06 1433.9 892.65 1431.18 892C1428.31 891.32 1425.57 890.27 1422.93 889.05C1420.29 887.84 1417.76 886.44 1415.31 884.86C1412.85 883.31 1410.42 881.36 1408.3 879.29C1404.05 875.1 1400.85 870.21 1397.94 865.28C1396.52 862.79 1395.15 860.29 1393.98 857.7C1392.77 855.13 1391.81 852.44 1390.8 849.8C1388.88 844.45 1386.84 839.33 1384.52 834.14C1382.34 828.93 1379.86 823.62 1378.69 817.88C1378.15 815.02 1377.89 812.1 1378.01 809.19C1378.03 806.28 1378.41 803.38 1378.93 800.53C1379.99 794.63 1382.31 788.73 1385.05 783.42C1388.82 776.12 1393.8 768.61 1396.34 760.81C1391.61 766.65 1387.45 773.45 1382.02 778.77C1369.71 790.84 1351.23 785.16 1335.91 788.12C1330.63 789.15 1326.39 793.47 1323.21 801.08C1323.12 801.06 1323.03 801.06 1322.94 801.04C1322.63 802.61 1322.16 804.19 1321.31 805.66Z" />
			<path id="&lt;Path&gt;" class="shp0" d="M1206.58 921.76C1206.21 925.32 1205.86 928.89 1205.66 932.47C1204.46 950.56 1205.36 969.1 1206.05 987.5C1206.51 996.71 1207.07 1005.9 1207.78 1015.09C1208.19 1019.65 1208.36 1024.34 1209.09 1028.79C1209.22 1029.81 1209.39 1030.82 1209.57 1031.82C1214.44 1039.4 1219.51 1046.67 1225.05 1053.58C1231.2 1061.31 1237.95 1068.52 1244.51 1075.99C1257.5 1091.01 1271.02 1106.51 1287.92 1117.08C1296.32 1122.36 1305.09 1126.88 1314.15 1130.12C1318.71 1131.69 1323.37 1132.8 1328.04 1133.45C1330.38 1133.79 1332.73 1133.9 1335.07 1134.03C1337.35 1134.1 1339.69 1133.97 1342.05 1133.74C1356.56 1132.36 1373.07 1127.33 1382.2 1114.75C1391.4 1102.07 1392.24 1086.62 1393.51 1071.56L1393.15 1071.53C1391.95 1064.65 1387.46 1058.1 1390.45 1051.27C1385.23 1051.94 1380.72 1055.47 1375.46 1056.33C1368.87 1057.41 1362.31 1056.96 1355.55 1056.7C1332.25 1055.78 1309.99 1051.63 1288.6 1042.11C1282.9 1039.57 1277.46 1036.35 1272.64 1032.41C1267.79 1028.5 1263.6 1023.88 1259.92 1018.98C1252.56 1009.15 1247.33 998.2 1242.48 987.21C1241.27 984.45 1240.04 981.73 1238.92 978.87C1237.78 976.04 1236.83 973.15 1235.89 970.27C1234.04 964.5 1232.49 958.71 1230.62 953.21C1228.85 947.81 1226.28 942.35 1224.53 936.4C1223.63 933.45 1222.88 930.38 1222.39 927.25C1221.92 924.11 1221.76 920.97 1221.88 917.77C1222 914.51 1222.63 911.44 1223.31 908.46C1223.99 905.48 1224.82 902.6 1225.59 899.73C1226.64 895.64 1227.73 891.55 1227.92 887.41C1227.59 887.79 1227.27 888.18 1226.91 888.57C1226.5 889.02 1225.87 889.61 1225.42 889.98C1224.45 890.81 1223.56 891.5 1222.67 892.22C1220.91 893.64 1219.26 895.08 1217.7 896.59C1214.62 899.61 1211.93 902.96 1210.15 906.74C1209.72 907.7 1209.24 908.63 1208.93 909.63C1208.57 910.6 1208.24 911.59 1208 912.61L1207.59 914.12L1207.33 915.67L1207.07 917.23L1206.88 918.92C1206.82 919.47 1206.77 920.01 1206.71 920.56C1206.87 920.81 1207.02 921.07 1207.19 921.32L1206.68 921.83C1206.64 921.81 1206.62 921.78 1206.58 921.76Z" />
			<path id="&lt;Path&gt;" class="shp0" d="M1541.5 1139.77C1540.73 1141.54 1539.98 1143.38 1539 1145.18C1541.08 1141.37 1548.68 1140.27 1552.29 1141.03C1556.97 1142.02 1558.97 1145.12 1562.59 1147.79C1567.94 1151.74 1573.24 1151.22 1578.63 1152.23C1584.01 1153.24 1592.32 1155.47 1595.47 1157.39C1598.62 1159.31 1600.78 1164.27 1607.65 1168.71C1611.82 1171.4 1618.97 1172.7 1623.96 1173.31C1626.75 1171.22 1630.02 1169.84 1633.35 1168.95C1635.33 1168.43 1637.34 1168.07 1639.35 1167.86C1641.35 1167.63 1643.34 1167.59 1645.32 1167.76C1649.27 1168.1 1653.15 1169.23 1657.02 1169.2C1660.87 1169.22 1664.7 1168.36 1668.18 1166.82C1669.93 1166.13 1671.43 1165.17 1672.99 1164.24C1674.53 1163.29 1676.06 1162.32 1677.51 1161.25C1680.43 1159.12 1683.03 1156.63 1685.46 1154.15C1690.17 1149.22 1694.3 1143.82 1692.6 1136.09C1690.83 1133.84 1688.77 1131.57 1686.28 1129.25C1666.72 1111.08 1640.23 1099.23 1630.68 1095.02C1621.13 1090.82 1615.77 1088.42 1609.16 1082.07C1604.35 1077.45 1592.86 1071.52 1584.17 1067.18C1585.54 1068.51 1586.77 1069.99 1587.79 1071.56C1590.76 1076.09 1592.45 1081.33 1593.07 1086.63C1593.65 1091.96 1592.99 1097.41 1591.17 1102.56C1590.24 1105.13 1588.99 1107.65 1587.22 1109.86C1586.36 1110.97 1585.31 1111.96 1584.2 1112.84L1580.98 1115.06C1576.57 1117.8 1572.03 1119.89 1567.55 1122.09C1561.45 1125.02 1554.13 1127.24 1548.39 1130.68C1544.66 1132.92 1543.04 1136.22 1541.5 1139.77Z" />
			<path id="&lt;Path&gt;" class="shp0" d="M1500.73 1127.94C1515.34 1133.42 1520.39 1133.37 1523.33 1132.82C1524.09 1132.68 1525.12 1132.76 1526.3 1133.01C1526.83 1132.6 1527.38 1132.21 1527.92 1131.82C1529 1131.15 1530.09 1130.48 1531.21 1129.88C1533.45 1128.68 1535.77 1127.67 1538.11 1126.79C1540.46 1125.91 1542.82 1125.14 1545.19 1124.48C1547.55 1123.77 1549.93 1123.22 1552.33 1122.8C1557.11 1121.96 1562.08 1121.65 1566.63 1119.94C1571.17 1118.28 1575.27 1115.5 1578.47 1112L1580.75 1109.32C1581.36 1108.43 1581.93 1107.57 1582.4 1106.62C1583.36 1104.73 1584.11 1102.71 1584.62 1100.58C1585.63 1096.31 1585.65 1091.78 1585.37 1087.33C1584.91 1079.81 1582.95 1075.8 1577.59 1070.66C1574.02 1067.24 1571.56 1062.83 1567.98 1059.42C1564.36 1055.97 1559.78 1053.58 1555.85 1050.49C1550.38 1046.2 1531.03 1034 1518.59 1027.57C1515.73 1026.09 1511.94 1024 1507.6 1021.55C1511.75 1025.21 1514.86 1030.08 1516.94 1035.33C1517.59 1036.78 1517.97 1038.31 1518.37 1039.84L1518.95 1042.14L1519.27 1044.5L1519.57 1046.86C1519.63 1047.65 1519.62 1048.45 1519.61 1049.24C1519.59 1050.83 1519.57 1052.42 1519.24 1053.98C1518.24 1060.3 1515.33 1066.06 1512.07 1071.19C1508.78 1076.35 1504.67 1080.99 1499.54 1084.71C1494.2 1088.35 1488.68 1090.58 1482.86 1092.51C1469 1097.09 1455.59 1097.47 1445.56 1109.72C1451.53 1102.43 1465.04 1110.47 1470.67 1113.32C1480.62 1118.33 1490.26 1124.01 1500.73 1127.94Z" />
			<path id="&lt;Path&gt;" class="shp0" d="M1387.95 1140.35C1387.29 1140.62 1386.63 1140.89 1385.96 1141.15C1362.59 1150.13 1334.31 1145.85 1311.74 1136.52C1306.92 1134.53 1302.29 1132.15 1297.92 1129.41C1293.55 1126.68 1289.51 1123.51 1285.58 1120.27C1277.74 1113.77 1270.6 1106.6 1263.15 1099.9C1255.68 1093.2 1247.55 1087.16 1240.18 1080.19C1236.5 1076.69 1232.98 1073.03 1229.74 1069.09C1228.07 1067.18 1226.54 1065.12 1224.96 1063.13C1223.44 1061.08 1221.97 1058.99 1220.52 1056.89C1217.3 1052.03 1214.37 1046.95 1211.9 1041.67C1211.93 1041.79 1211.96 1041.92 1212 1042.05C1214.54 1050.75 1218.3 1059.05 1222.52 1067.03C1226.79 1075 1231.65 1082.65 1237.13 1089.8C1242.63 1096.97 1248.7 1103.51 1255.57 1109.37C1262.58 1115.49 1269.27 1121.94 1275.82 1128.52C1288.74 1141.85 1301.09 1155.77 1311.81 1171.08C1317.18 1178.76 1321.8 1186.94 1325.83 1195.3C1327.69 1199.16 1329.73 1203.73 1332.78 1206.83C1335.52 1209.61 1341.73 1210.67 1344.74 1208.48C1347.72 1206.31 1350.41 1202.69 1352.96 1199.96C1360.59 1191.81 1366.59 1181.88 1371.65 1171.97C1376.75 1161.97 1379.9 1148.5 1387.95 1140.35Z" />
			<path id="&lt;Path&gt;" class="shp0" d="M1421.36 997.73C1424.46 996.71 1427.43 995.65 1430.26 994.2C1434.99 991.77 1437.85 988.53 1442.06 985.62C1446.24 982.73 1451.5 981.42 1454.53 977.02C1445.44 983.66 1436.83 979.83 1427.51 976.32C1425.35 975.51 1407.78 969.41 1408.31 966.83C1407.3 971.29 1406.45 975.44 1405.64 979.71L1404.36 986.11C1403.93 988.24 1403.44 990.37 1402.77 992.48C1401.46 996.7 1399.58 1000.89 1398.63 1005.25C1397.71 1009.21 1397.37 1013.21 1397.41 1017.26C1397.8 1016.57 1398.2 1015.88 1398.62 1015.21C1400.35 1012.44 1402.43 1009.92 1404.75 1007.65C1407.08 1005.38 1409.77 1003.54 1412.53 1001.84C1415.24 1000.07 1418.24 998.73 1421.36 997.73Z" />
			<path id="&lt;Path&gt;" class="shp0" d="M1431.52 1095.45C1442.46 1092.98 1453.29 1091.34 1463.93 1089.25C1469.64 1088.18 1475.36 1087.25 1481 1085.93L1485.22 1084.89C1486.62 1084.52 1488.01 1084.11 1489.43 1083.78L1493.62 1082.63L1497.59 1081.26C1502.79 1079.1 1507.37 1075.1 1510.05 1070.01C1512.79 1064.89 1513.26 1058.97 1513.22 1053.49C1514.04 1039.45 1507.82 1034.62 1499.84 1024.31C1493.89 1016.62 1491.05 1012.06 1482.34 1007.09C1470.8 1000.52 1458.38 992.92 1444.51 994.97C1443.1 995.18 1441.69 995.34 1440.23 995.42C1437.32 995.56 1434.08 995.38 1431.16 996.35C1428.23 997.28 1425.63 999.04 1423.35 1001.15L1421.66 1002.74C1421.11 1003.3 1420.56 1003.83 1419.99 1004.33C1418.89 1005.39 1417.72 1006.33 1416.6 1007.34C1414.35 1009.35 1412.22 1011.46 1409.93 1013.38C1407.63 1015.29 1405.28 1017.16 1402.85 1019.02C1401.11 1020.35 1399.38 1021.7 1397.53 1023.04C1397.55 1023.76 1397.58 1024.48 1397.58 1025.2C1397.6 1027.42 1397.52 1029.63 1397.47 1031.84C1397.37 1036.26 1397.37 1040.69 1397.01 1045.1C1396.14 1055.59 1399.49 1066.09 1405.43 1074.68C1412.49 1084.9 1420.41 1090.06 1431.52 1095.45Z" />
			<path id="&lt;Path&gt;" class="shp0" d="M1699.44 1148.86C1695.59 1156.34 1689.67 1162.48 1681.12 1167.06C1679.28 1168.05 1677.37 1168.93 1675.34 1169.55C1673.35 1170.19 1671.16 1170.54 1669.1 1170.68C1665.01 1170.95 1661.07 1171.02 1657.17 1171.53C1651.86 1172.22 1645.78 1173.73 1641.36 1177.08C1639.15 1178.75 1637.26 1180.89 1636.81 1183.72C1636.13 1188.03 1638.03 1188.53 1641.07 1190.41C1643.98 1192.21 1644.42 1194.21 1645.78 1198.46C1647.13 1202.71 1650.24 1207.56 1657.31 1214.47C1662.02 1219.07 1665.3 1222.84 1667.14 1225.76C1669.4 1226.34 1671.81 1224.92 1674.36 1221.51C1679.11 1226.62 1690.3 1233 1696.73 1235.43C1703.15 1237.86 1705 1240.59 1708.81 1245.22C1712.63 1249.85 1720.71 1259.94 1728.97 1265.69C1734.48 1269.52 1738.63 1269.3 1741.43 1265.04L1741.13 1264.83C1740.69 1263.03 1740.79 1261.66 1740.91 1260.49C1740.99 1259.91 1741.06 1259.4 1741.19 1258.93C1741.26 1258.46 1741.44 1258.08 1741.74 1257.69C1742.37 1256.97 1743.54 1255.89 1743.56 1254.66C1743.62 1253.46 1742.92 1252.37 1741.87 1251.46C1740.79 1250.52 1739.89 1249.6 1739.26 1248.64C1738.55 1247.7 1737.81 1246.88 1737.38 1245.96C1736.94 1245.03 1736.64 1244.09 1736.33 1243.05C1736.28 1242.87 1736.23 1242.69 1736.17 1242.5C1735.34 1241.88 1734.51 1241.24 1733.67 1240.63C1731.8 1239.25 1729.93 1237.87 1727.98 1236.65C1726.05 1235.44 1723.98 1234.27 1722.01 1232.95C1718.07 1230.38 1713.85 1227.99 1710.21 1224.95C1708.4 1223.44 1706.75 1221.77 1705.25 1219.99C1703.71 1218.23 1702.28 1216.4 1700.9 1214.54C1699.53 1212.67 1698.21 1210.77 1696.99 1208.79C1695.93 1207.11 1694.93 1205.4 1693.97 1203.62C1693.44 1204.01 1692.92 1204.44 1692.42 1204.89C1690.4 1206.7 1688.97 1209.26 1687.24 1211.28C1686.37 1212.3 1685.43 1213.18 1684.4 1213.98C1683.42 1214.81 1682.4 1215.59 1681.38 1216.36C1679.31 1217.92 1677.28 1219.37 1674.85 1221.07L1674.2 1220.75C1674.25 1217.64 1675.64 1214.83 1677.3 1212.47C1678.14 1211.29 1679.08 1210.21 1680.09 1209.21C1681.08 1208.2 1682.18 1207.32 1683.41 1206.62C1685.86 1205.22 1688.73 1204.5 1691.01 1203.04C1693.31 1201.61 1695.25 1199.66 1696.84 1197.45C1697.63 1196.42 1698.51 1195.12 1699.51 1194.11C1700.47 1193.03 1701.59 1192.12 1702.73 1191.23C1704.99 1189.44 1707.41 1187.8 1710.03 1186.7C1712.66 1185.6 1715.37 1184.84 1718.14 1184.39C1720.9 1183.94 1723.67 1183.67 1726.63 1183.9L1726.88 1184.58C1724.77 1186.67 1722.45 1188.23 1720.17 1189.71C1717.88 1191.19 1715.59 1192.47 1713.33 1193.68C1711.06 1194.88 1708.71 1195.83 1706.43 1196.97C1704.18 1198.2 1701.92 1199.26 1699.38 1200.49C1697.88 1201.22 1696.45 1201.99 1695.12 1202.85C1696.8 1203.87 1698.37 1205.01 1699.86 1206.22C1701.71 1207.67 1703.44 1209.22 1705.12 1210.8C1706.8 1212.38 1708.42 1214.01 1710 1215.64C1711.6 1217.27 1713.11 1218.95 1714.52 1220.73C1717.33 1224.27 1719.83 1228.23 1723.37 1231.05C1725.09 1232.51 1727.08 1233.55 1729.19 1234.53C1731.28 1235.52 1733.45 1236.36 1735.63 1237.19C1736.73 1237.61 1737.83 1238.02 1738.94 1238.43C1739.38 1238.55 1739.82 1238.69 1740.23 1238.87C1740.43 1238.96 1740.61 1239.07 1740.8 1239.17C1741.25 1239.35 1741.7 1239.51 1742.14 1239.7C1744.28 1240.59 1746.36 1241.58 1748.45 1242.57C1749.45 1243.03 1750.62 1243.6 1751.69 1244.21C1752.76 1244.82 1753.78 1245.45 1754.77 1246.06C1756.72 1247.19 1758.66 1248.65 1759.84 1249C1760.69 1249.34 1761.75 1249.61 1762.95 1250.04C1764.14 1250.48 1765.56 1250.89 1767.21 1252.23C1769.41 1254.21 1770.83 1256.5 1771.9 1258.68C1774.09 1263.07 1775.18 1267.19 1778.07 1270.83L1777.87 1271.12L1779.89 1272.17C1782.17 1275.55 1789.06 1283.5 1793.11 1285.59C1797.16 1287.69 1802.32 1282.66 1802.93 1280.78C1803.53 1278.89 1802.69 1276.26 1800.55 1273.32C1798.41 1270.38 1794.56 1263.63 1788.96 1258.17C1783.35 1252.7 1779.4 1243.33 1775.96 1239.36C1773.66 1236.71 1764.82 1230.18 1749.43 1219.78C1748.18 1211.81 1746.26 1206.06 1743.69 1202.53C1741.12 1199 1735.66 1193.25 1727.32 1185.27C1728.31 1183.83 1728.87 1181.8 1729 1179.18C1729.03 1178.61 1718.67 1172.74 1717.44 1171.76C1714.49 1169.41 1711.79 1166.77 1709.43 1163.83C1704.34 1157.45 1703.72 1152.26 1704.18 1144.2C1704.46 1139.34 1703.78 1133.84 1704.92 1129.14C1704.16 1136.46 1702.42 1143.06 1699.44 1148.86Z" />
			<path id="&lt;Path&gt;" class="shp0" d="M1771.67 1267.12C1769.97 1265.36 1768.54 1263.46 1767.13 1261.79C1765.71 1260.1 1764.3 1258.67 1762.9 1257.76C1762.69 1257.71 1761.87 1257.41 1760.86 1257.2C1759.85 1256.98 1758.67 1256.72 1757.33 1256.31C1756.67 1256.11 1755.95 1255.81 1755.18 1255.41C1754.74 1255.18 1754.49 1255.03 1754.23 1254.87C1753.96 1254.71 1753.7 1254.55 1753.44 1254.37C1752.41 1253.7 1751.43 1253.01 1750.52 1252.31C1749.59 1251.62 1748.71 1250.95 1747.83 1250.34C1747.17 1249.86 1746.5 1249.42 1745.77 1248.96C1745.74 1249.36 1745.69 1249.77 1745.62 1250.18C1745.38 1251.66 1745.41 1253 1745.87 1254.29C1746.3 1255.56 1747.52 1257.04 1747.67 1258.81C1747.76 1259.67 1747.57 1260.5 1747.2 1261.21C1746.86 1261.93 1746.42 1262.57 1745.9 1263.11C1744.85 1264.18 1743.58 1264.94 1741.73 1265.24L1741.43 1265.04C1741.43 1265.04 1745.68 1272.26 1748.35 1275.11C1750.12 1277.01 1752.63 1276.93 1755.87 1274.86C1757.22 1279.1 1764.75 1286.84 1767.73 1291.93C1770.72 1297.02 1773.34 1303.4 1777.66 1304.75C1781.99 1306.1 1785.45 1302.27 1786.66 1299.35C1787.88 1296.43 1786.85 1294.42 1784.79 1290.39C1782.72 1286.37 1781.14 1282.01 1779.42 1279.05C1778.27 1277.08 1777.75 1274.43 1777.87 1271.12L1777.66 1271.42C1775.36 1270.55 1773.33 1268.89 1771.67 1267.12Z" />
			<path id="&lt;Path&gt;" class="shp0" d="M1276.13 1264.75C1279.88 1261.8 1283.82 1259.08 1287.99 1256.71C1292.09 1254.33 1296.71 1252.21 1301.47 1251.03C1306.24 1249.8 1311.2 1249.43 1315.99 1249.87C1318.23 1250.06 1320.44 1250.42 1322.6 1250.91C1322.38 1250.74 1322.15 1250.58 1321.93 1250.4C1321.24 1249.82 1320.55 1249.25 1319.88 1248.63C1319.25 1248.01 1318.53 1247.33 1317.97 1246.76C1316.8 1245.58 1315.63 1244.39 1314.44 1243.25C1304.98 1234.14 1293.82 1226.87 1281.27 1225.72C1268.74 1224.27 1255.55 1226.75 1243.39 1231.45C1240.33 1232.6 1237.42 1234.03 1234.32 1235.46L1225.19 1239.77C1219.11 1242.68 1213.01 1245.56 1207.03 1248.66C1201.08 1251.83 1195.11 1255.01 1189.4 1258.61C1186.51 1260.36 1183.72 1262.25 1180.92 1264.13C1179.55 1265.09 1178.08 1266.02 1176.84 1267.08L1174.95 1268.63C1174.32 1269.15 1173.8 1269.79 1173.22 1270.37C1170.94 1272.71 1169.24 1275.55 1167.79 1278.45C1167.18 1279.96 1166.47 1281.42 1166.05 1283.01C1165.82 1283.79 1165.55 1284.55 1165.35 1285.34L1164.85 1287.74C1163.57 1294.12 1163.76 1300.71 1164.64 1307.08C1164.79 1308.68 1165.2 1310.25 1165.46 1311.83C1165.89 1313.38 1166.17 1314.97 1166.65 1316.49L1167.34 1318.78C1167.59 1319.54 1167.9 1320.27 1168.18 1321.01C1168.69 1322.41 1169.43 1324.24 1169.97 1325.82C1171.11 1329.06 1172.1 1332.16 1173.53 1334.79C1174.93 1337.48 1176.64 1339.49 1179.25 1341.13C1181.8 1342.78 1185.06 1344.3 1188.01 1346.6C1190.46 1348.52 1192.43 1350.78 1194.17 1353.16C1196.2 1353.85 1198.12 1354.63 1200.01 1355.45C1201.41 1356.05 1202.77 1356.7 1204.11 1357.37C1205.47 1358.02 1206.77 1358.78 1208.02 1359.66C1210.5 1361.43 1212.8 1363.77 1215.57 1365.12C1218.31 1366.51 1221.37 1367.19 1224.45 1367.36C1227.55 1367.54 1230.38 1367.48 1233.43 1367.64C1236.45 1367.72 1239.55 1367.69 1242.67 1368.13C1244.3 1368.37 1245.94 1368.68 1247.58 1369.08C1247.08 1368.29 1246.61 1367.47 1246.2 1366.64C1244.01 1362.07 1242.96 1357.3 1242.23 1352.64C1241.88 1350.31 1241.54 1348 1241.24 1345.7L1240.72 1342.26C1240.58 1341.08 1240.4 1339.9 1240.3 1338.72C1239.37 1329.28 1240.69 1319.79 1243.44 1310.68C1244.85 1306.14 1246.62 1301.68 1248.83 1297.46C1251.03 1293.22 1253.63 1289.21 1256.45 1285.38C1262.1 1277.71 1268.65 1270.68 1276.13 1264.75Z" />
			<path id="&lt;Path&gt;" class="shp0" d="M1293.74 1373.73C1295.28 1371.5 1296.96 1369.38 1298.8 1367.4C1302.48 1363.43 1306.75 1360 1310.25 1355.96C1313.77 1351.92 1316.84 1347.5 1319.96 1343.04C1320.75 1341.92 1321.54 1340.81 1322.37 1339.72C1323.17 1338.6 1324.02 1337.53 1324.92 1336.49C1326.68 1334.37 1328.63 1332.41 1330.66 1330.51C1334.73 1326.74 1339.25 1323.14 1344.72 1320.88C1346.08 1320.33 1347.45 1319.77 1348.93 1319.44C1350.35 1319 1351.87 1318.79 1353.37 1318.62C1356.55 1318.2 1359.64 1318.7 1362.46 1319.54C1365.29 1320.39 1367.97 1321.71 1370.29 1323.46C1372.49 1325.13 1374.36 1327.21 1375.6 1329.57C1376.39 1322.78 1373.54 1318.73 1368.35 1314.33C1363.01 1309.79 1365.3 1305.36 1363.63 1298.29C1361.96 1291.22 1358.16 1286 1357.16 1281.64C1356.16 1277.29 1351.32 1270.06 1349.02 1266.5C1348.88 1266.29 1348.75 1266.05 1348.62 1265.78L1348.39 1266.06C1345.63 1264.11 1342.73 1262.43 1339.76 1260.85C1336.79 1259.27 1333.74 1257.82 1330.73 1256.13C1329.23 1255.31 1327.73 1254.44 1326.26 1253.5C1322.78 1253.31 1319.35 1253.28 1315.98 1253.57C1311.52 1253.96 1307.22 1254.9 1303.18 1256.46C1301.15 1257.25 1299.18 1258.14 1297.3 1259.22C1295.39 1260.22 1293.55 1261.42 1291.68 1262.67C1288 1265.19 1284.43 1267.89 1280.99 1270.75C1270.94 1279.14 1262.39 1287.53 1255.09 1298.32C1249 1307.32 1248.96 1320.54 1250.07 1330.91C1251.03 1339.9 1254.88 1347.03 1258.21 1355.18C1261.38 1362.93 1266.83 1366.68 1273.04 1372.14C1276.02 1374.77 1278.98 1377.72 1280.59 1381.42C1282.27 1385.3 1281.56 1389.33 1283.76 1393.04C1284.38 1391.35 1284.97 1389.59 1285.7 1387.93C1286.74 1385.39 1288.01 1382.96 1289.36 1380.59C1290.72 1378.23 1292.18 1375.94 1293.74 1373.73Z" />
			<path id="&lt;Path&gt;" class="shp0" d="M1734.76 791.48C1735.14 795.74 1737.54 799.59 1740.29 803.01C1741.64 804.74 1743.16 806.48 1744.48 808.24L1748.43 813.54C1751.06 817.07 1753.8 820.48 1756.35 824.03C1760.99 830.68 1765.63 837.27 1770.11 844.4C1774.78 846.15 1782.97 845.91 1782.98 845.91L1782.62 845.91C1780.21 837.88 1776.92 831 1772.31 825.2C1770.02 822.18 1767.47 818.99 1765.08 815.33C1764.48 814.45 1763.92 813.41 1763.37 812.44C1762.9 811.34 1762.31 810.38 1762.03 809.13C1761.24 806.85 1761.21 804.06 1761.96 801.72C1763.44 796.92 1767.23 794.19 1769.71 791.19C1772.3 788.09 1773.68 784.15 1774.02 780.84C1774.22 779.19 1774.28 777.56 1774.13 776C1773.96 774.44 1773.51 772.89 1772.78 771.21C1772.05 769.54 1771.06 767.77 1770.2 765.79C1769.33 763.83 1768.59 761.61 1768.62 759.39L1769.31 759.17C1770.61 760.84 1771.97 762.2 1773.39 763.62C1774.84 765.02 1776.32 766.53 1777.66 768.39C1778.98 770.25 1780.08 772.57 1780.5 775.07C1780.96 777.56 1780.71 780.1 1779.85 782.4C1778.99 784.7 1777.58 786.63 1776.06 788.26C1774.55 789.92 1772.92 791.31 1771.43 792.77C1770.68 793.5 1769.93 794.22 1769.22 794.97C1768.59 795.71 1767.97 796.47 1767.4 797.24C1766.46 798.89 1765.72 800.68 1765.87 802.37C1765.86 802.78 1765.86 803.18 1766 803.58C1766.11 803.98 1766.15 804.36 1766.3 804.74C1766.65 805.49 1766.92 806.21 1767.4 806.93C1767.77 807.64 1768.36 808.38 1768.83 809.1C1769.44 809.81 1769.92 810.55 1770.59 811.27C1773.07 814.19 1776.1 817.04 1778.58 820.68C1779.8 822.49 1780.95 824.52 1781.8 826.58C1782.66 828.64 1783.28 830.79 1783.71 832.95C1784.52 837.28 1784.56 841.76 1783.34 845.91L1782.98 845.91C1790.96 851.72 1801.46 857.15 1814.49 862.19C1834.02 869.75 1845.38 867.39 1850.73 863.18C1856.07 858.97 1853.7 847.61 1857.1 838.59C1860.49 829.57 1871.37 825.69 1875.21 820.7C1879.05 815.72 1878.41 807.15 1878.8 796.58C1879.2 786.02 1887.96 770.27 1894.44 756.51C1898.76 747.34 1901.16 739.11 1901.64 731.83C1897.67 721.95 1887.62 714.28 1879.77 713.52C1871.91 712.76 1851.06 728.37 1844.8 731.73C1838.53 735.08 1827.55 734.77 1822.28 737C1817.01 739.22 1803.52 743.79 1797.94 744.21C1794.23 744.49 1787.83 748.88 1778.76 757.39C1776.16 756.04 1773.04 756.49 1769.41 758.74C1768.13 760.09 1765.81 760.14 1762.45 758.9C1759.67 757.88 1757.22 758.63 1754.08 759.53L1754.17 759.88C1750.55 762.44 1748.27 765.99 1745.81 769.44C1744.61 771.19 1743.48 772.99 1742.35 774.78C1741.24 776.6 1740.14 778.4 1738.97 780.15C1737.8 781.92 1736.62 783.64 1735.8 785.45C1734.99 787.29 1734.56 789.38 1734.76 791.48Z" />
			<path id="&lt;Path&gt;" class="shp0" d="M937.95 747.48C938.01 747.71 938.06 747.88 938.1 747.98C939.79 751.83 942.84 755.23 945.6 758.33L950.4 763.65C952.03 765.46 953.6 767.31 955.15 769.15C958.23 772.88 961.25 776.62 964.37 780.25C970.57 787.49 977.48 794.35 985.78 798.88C989.89 801.16 994.44 802.54 998.94 803.16C1003.46 803.76 1007.97 803.42 1012.21 802.42C1016.45 801.33 1020.49 799.61 1024.22 797.21C1033.02 791.4 1036.48 781.39 1031.08 771.7C1029.81 769.42 1028.27 767.24 1026.51 765.17C1023.01 761.04 1019 757.11 1014.49 753.77C1009.97 750.45 1005.18 747.64 999.85 745.28C994.55 742.93 988.78 741.46 982.95 741.02C973.23 740.29 963.5 741.91 953.79 742.28C948.48 742.48 943.57 741.2 938.55 740.15C936.52 739.73 937.44 745.57 937.95 747.48Z" />
			<path id="&lt;Path&gt;" class="shp0" d="M1244.88 849.47L1243.65 850.71C1243.31 851.08 1242.99 851.45 1242.72 851.88C1242.17 852.7 1241.77 853.63 1241.44 854.63C1240.81 856.64 1240.39 858.89 1239.91 861.16C1239.43 863.44 1238.88 865.75 1238.19 868.04C1237.48 870.34 1236.6 872.57 1235.61 874.75C1233.89 878.51 1231.88 882.1 1229.38 885.49C1229.83 887.4 1230.03 889.38 1230.06 891.33C1230.08 894.42 1229.79 897.49 1229.37 900.49C1228.59 906.47 1227.38 912.35 1227.49 917.84C1227.55 920.61 1227.89 923.47 1228.44 926.22C1228.96 928.99 1229.71 931.72 1230.64 934.46C1231.58 937.19 1232.58 939.95 1233.6 942.76C1234.66 945.49 1235.63 948.54 1236.4 951.52C1237.91 957.5 1238.69 963.47 1239.76 969.29C1240.29 972.21 1240.94 975.08 1241.73 977.92C1242.56 980.71 1243.58 983.54 1244.64 986.31C1246.83 991.84 1249.35 997.24 1252.4 1002.32C1255.41 1007.42 1259.04 1012.12 1262.97 1016.45C1270.96 1025.03 1280.62 1031.59 1291.22 1035.83C1302.02 1040.09 1313.4 1042.25 1325.02 1043.19C1335.33 1044.03 1345.19 1043.57 1355.39 1043.45C1360.86 1043.39 1367.03 1040.94 1372.28 1039.38C1387.84 1034.77 1394.53 1020.2 1396.33 1004.86C1396.85 1000.43 1396.43 995.83 1396.86 991.31C1397.07 989.05 1397.48 986.82 1398.1 984.62C1398.67 982.42 1399.39 980.24 1400.24 978.1C1401.1 975.97 1402.08 973.86 1403.33 971.88C1404.51 969.87 1405.98 967.99 1407.71 966.39L1408.24 966.71C1408.53 966.13 1411.15 960.75 1410.96 955.45C1410.82 951.63 1412.35 947.07 1413.33 944.55C1411.67 946.47 1409.84 948.24 1407.94 949.9C1405.13 952.38 1402.24 954.71 1399.55 957.12C1396.83 959.54 1394.56 962.14 1392.31 965.03C1390.07 967.88 1387.95 970.97 1385.23 973.88C1382.52 976.77 1379.15 979.37 1375.5 981.1C1371.93 982.8 1368.43 984.14 1364.76 985.36C1357.49 987.78 1349.74 989.09 1342.3 989.79C1338.97 990.15 1335.27 990.91 1331.34 991.32C1329.36 991.51 1327.31 991.65 1325.08 991.46C1323.96 991.36 1322.83 991.18 1321.62 990.83C1320.46 990.48 1319.45 990.04 1318.51 989.59C1316.64 988.7 1315.02 987.73 1313.53 986.99C1312.79 986.62 1312.09 986.31 1311.47 986.1C1310.78 985.89 1309.88 985.63 1309.07 985.43C1305.72 984.6 1302.11 984.13 1298.28 983.35C1294.47 982.56 1290.33 981.25 1286.83 978.73C1285.11 977.48 1283.51 976.04 1282.2 974.45C1280.8 972.86 1279.79 971.28 1278.71 969.6C1274.52 962.93 1272.21 955.14 1271.97 947.38C1271.78 943.49 1272.34 939.64 1272.8 936.03C1273.01 934.22 1273.18 932.46 1273.07 930.76C1272.94 929.06 1272.52 927.42 1271.77 925.89C1271.02 924.34 1269.97 922.95 1268.76 921.59C1267.56 920.21 1266.31 918.86 1265.06 917.49C1262.61 914.75 1259.83 911.98 1258.27 908.28C1256.7 904.62 1256.29 900.71 1256.13 896.94C1256.05 895.05 1256.07 893.17 1256.04 891.28L1256.28 885.61C1256.85 878.05 1258.45 870.47 1261.29 863.3C1264.13 856.15 1268.15 849.42 1273.18 843.6C1275.69 840.7 1278.33 837.9 1281.19 835.36L1283.34 833.46L1285.59 831.68C1287.06 830.47 1288.62 829.37 1290.18 828.28C1291.66 827.18 1293.47 826.03 1295.07 825.19C1296.68 824.28 1298.26 823.41 1299.66 822.47C1301.08 821.53 1302.08 820.59 1303.09 819.21C1304.11 817.89 1305.06 816.21 1306.38 814.62C1309.05 811.37 1312.7 809.51 1315.86 807.84C1317.41 806.97 1318.85 806.05 1319.9 804.69C1320.8 803.59 1321.5 802.29 1322.05 800.89C1302.42 797.4 1291.51 808.34 1277.03 819.26C1267.18 826.69 1258.83 832.73 1251.96 837.39L1252.18 837.68C1248.71 840.62 1248.45 845.64 1244.88 849.47Z" />
			<path id="&lt;Path&gt;" class="shp0" d="M915.97 653.16C917.6 656.78 922.87 656.17 926.47 655.61C930.44 654.96 934.37 653.97 938.35 652.92C942.32 651.87 946.3 650.67 950.5 649.78C951.55 649.54 952.62 649.33 953.71 649.15C954.79 648.98 955.75 648.82 956.79 648.69C958.83 648.39 960.9 648.11 962.99 647.89C971.35 647.02 980.19 647 988.57 648.99C992.78 650.03 996.71 651.61 1000.58 653.34C1004.42 655.1 1008.23 656.95 1011.97 658.88L1023.07 664.66C1026.71 666.54 1030.34 668.5 1033.94 669.82C1037.63 671.2 1041.58 672.28 1045.63 673.52C1049.68 674.75 1053.85 676.23 1057.86 678.54C1061.87 680.78 1065.62 684.19 1068.07 688.36C1070.43 692.47 1071.57 696.47 1073.36 699.74C1075.78 704.17 1080.86 709.97 1086.38 710.25C1094.03 710.64 1097.6 699.2 1100.46 693.83C1100.21 685.32 1100.09 676.88 1098.57 668.9C1097.79 664.8 1096.78 661.05 1094.74 658.26C1092.75 655.46 1089.71 653.49 1086.05 651.54C1082.44 649.59 1078.4 647.57 1074.69 644.97C1070.98 642.44 1067.58 639.66 1064.27 636.9C1060.95 634.15 1057.71 631.42 1054.43 628.84C1051.13 626.27 1047.82 623.78 1044.15 621.86C1040.49 619.89 1036.59 618.33 1032.48 617.59C1028.37 616.83 1024.13 616.85 1019.94 617.4C1011.54 618.52 1003.52 621.9 994.8 623.41C990.49 624.2 986.11 624.61 981.74 624.7C977.37 624.85 973 624.69 968.65 624.37C962.69 623.94 956.89 623.2 951.06 622C945.37 620.81 940.29 617.7 935.24 614.96C936.96 616.84 939.42 617.72 940.74 619.95C939.73 619.18 938.75 618.96 937.51 618.73C933.72 618.02 930.42 618.46 925.11 623.8C920.63 628.3 919.72 635.32 918.2 641.19C917.35 644.46 915.19 647.81 915.51 651.29C915.58 652.01 915.74 652.63 915.97 653.16Z" />
			<path id="&lt;Path&gt;" class="shp0" d="M1068.32 761.97C1068.37 758.29 1072.72 745.69 1077.26 736.91C1081.8 728.12 1088.46 726 1088.62 723.3C1088.75 721.11 1086 718.29 1084.62 716.8C1082.78 714.83 1080.61 713.18 1078.42 711.61C1076.74 710.4 1075.01 709.18 1073.33 707.77C1071.67 706.4 1069.89 704.75 1068.57 702.82C1065.85 699.05 1064.24 695.07 1062.15 692.12C1060.05 689.28 1057.38 687 1054.06 685.26C1047.5 681.66 1039.34 679.74 1031.32 676.13C1023.17 672.42 1016.63 667.16 1009.9 662.26C1006.54 659.83 1003.14 657.47 999.5 655.55C995.88 653.63 992.04 651.99 988.09 651.27C984.11 650.55 980.01 650.76 976 651.35C971.97 651.99 968 652.93 963.96 653.85C961.94 654.3 959.89 654.72 957.82 655.08C956.8 655.28 955.69 655.41 954.72 655.59C953.75 655.75 952.77 655.89 951.77 656.09C947.81 656.85 943.7 657.72 939.52 658.4C937.43 658.77 935.32 659.04 933.17 659.22C931.04 659.45 928.86 659.51 926.68 659.45C920.27 659.31 910.78 655.7 906.79 650.41C908.89 653.01 911.98 655.51 913.37 658.59C914.8 661.75 914.75 665.71 915.72 669.13C916.7 672.61 919.37 675.21 922.48 676.88C923.69 677.53 924.98 678.13 926.32 678.37C928.22 678.72 929.76 678 931.57 677.53C932.73 677.24 933.97 676.94 934.91 676.55L935.82 676.17L936.34 677.21C938.2 680.89 938.76 683.65 942.33 686.22C945.31 688.37 948.8 689.75 952.23 691.01C968.47 696.95 985 701.67 1002.64 700.82C1010.18 700.55 1017.58 698.91 1025.29 697.96C1029.14 697.53 1033.09 697.2 1037.14 697.57C1041.15 697.93 1045.43 698.89 1049.31 701.63C1049.78 701.99 1050.27 702.31 1050.72 702.71L1052 704.02L1052.62 704.69L1053.14 705.43C1053.46 705.93 1053.86 706.4 1054.11 706.94C1055.32 709.04 1055.92 711.36 1056.28 713.56C1056.95 718.02 1056.34 722.06 1055.96 725.75C1055.52 729.5 1055.18 732.77 1055.83 735.75C1056.18 737.33 1056.72 739.01 1057.36 740.74L1059.28 746.09C1060.53 749.74 1061.74 753.74 1061.57 758.02C1061.4 760.14 1060.95 762.32 1059.77 764.11C1059.47 764.72 1059.03 765.23 1058.58 765.72C1060.48 767.49 1062.76 768.11 1065.42 767.58C1067.32 766.3 1068.29 764.43 1068.32 761.97Z" />
			<path id="&lt;Path&gt;" class="shp0" d="M950.42 815.07C949.36 814.9 948.21 814.74 947.05 814.53C944.76 814.15 942.48 813.66 940.2 813.17C935.63 812.18 931 811.19 926.5 809.59C924.26 808.79 922.03 807.9 919.86 806.85C918.79 806.34 917.65 805.79 916.53 805.15C915.41 804.5 914.32 803.77 913.26 802.9C911.2 801.26 909.12 798.68 908.83 795.6C908.7 794.03 909.08 792.47 909.62 791.01C910.09 789.7 911.17 788.37 911.28 786.96C911.19 788.12 907.46 787.22 906.79 787.43C904.53 788.15 903.96 790.83 899.9 797.1C895.85 803.38 892.28 805.05 889.8 806.2C888.14 806.96 886.33 808.91 884.36 812.03C879.72 811.25 874.5 810.9 868.7 810.96C860.01 811.06 838.58 808.63 830.85 808.95C823.12 809.28 814.62 810.56 809.67 811.25C804.73 811.93 789.79 813.67 785.24 816.72C780.69 819.77 772.8 824.06 767.29 826.89C761.78 829.71 759.78 834.62 757.19 835.98C754.76 837.26 749.97 838.97 738.17 851.83C741.8 850.26 745.54 848.96 749.31 847.89C759.62 844.92 770.15 843.22 780.49 841.61L788.19 840.41L795.88 839.12C801.16 838.22 806.47 837.56 811.77 837.12C817.07 836.65 822.37 836.31 827.65 836.2C832.94 836.06 838.21 836.15 843.48 836.16C853.99 836.25 864.5 835.99 874.87 834.52C885.27 833.09 895.47 830.43 905.68 828.18C910.79 827.06 915.91 826.03 921.05 825.1L936.46 822.18C944.77 820.64 953.06 818.98 961.45 817.47C958.81 817.02 956.24 816.33 953.77 815.76C952.63 815.5 951.52 815.25 950.42 815.07Z" />
			<path id="&lt;Path&gt;" class="shp0" d="M984.5 801.07C976.25 795.7 969.06 789.19 961.86 782.69C958.27 779.43 954.75 776.11 951.24 772.84C947.77 769.51 944.3 766.34 940.8 762.85C937.39 759.36 933.78 755.59 931.31 750.65C930.1 748.21 929.16 745.56 928.67 742.89C928.2 740.24 927.95 737.56 928.03 734.98C928.02 733.67 928.15 732.41 928.22 731.13C928.3 729.87 928.44 728.72 928.54 727.51C928.76 725.12 929 722.73 929.26 720.34C929.76 715.55 930.36 710.78 930.92 706C931.25 703.62 931.5 701.26 931.95 698.73C932.38 696.28 932.96 693.96 933.41 691.63C933.75 689.86 934.1 688.1 934.34 686.31C934.5 685.13 934.83 683.28 933.34 682.83C932.61 682.61 931.78 682.69 931.05 682.85C929.91 683.11 928.83 683.54 927.65 683.58C925.85 683.66 924.05 683.23 922.33 682.74C923.45 683.2 924.91 683.4 925.8 684.3C927.37 685.89 926.89 688.16 926.77 690.14C926.64 692.42 926.58 694.72 926.84 696.99C927.59 703.76 923.5 719.09 921.97 732.75C920.43 746.42 915.73 760.72 915.92 770.81C916.02 776.34 914.25 781.29 913.46 786.64C913 789.73 912.83 791.83 914.63 794.55C918.08 799.77 923.42 800.6 928.91 802.25C933.26 803.56 937.61 805.08 942.02 806.58C944.22 807.33 946.44 808.07 948.62 808.94C950.77 809.74 953.16 810.93 955.18 812.06C957.26 813.19 959.25 814.33 961.38 815C963.49 815.69 965.7 815.93 967.89 815.55C972.4 814.86 976.53 812.55 980.94 810.96C982.04 810.55 983.18 810.2 984.33 809.9C985.47 809.6 986.75 809.35 987.78 809.16C989.94 808.75 992.14 808.25 994.38 807.77C995.36 807.57 996.35 807.36 997.35 807.17C992.73 805.71 988.44 803.61 984.5 801.07Z" />
			<path id="&lt;Path&gt;" class="shp0" d="M969.42 614.9C986.13 617.52 1002.74 616.48 1019.7 615.07C1024.04 614.76 1028.45 614.64 1032.84 615.16C1037.22 615.7 1041.57 616.72 1045.75 618.24C1054.26 621.17 1061.63 626.45 1068.46 631.51C1071.93 634.01 1075.33 636.49 1078.82 638.64C1082.27 640.78 1085.92 642.6 1089.82 644.8C1091.74 645.92 1093.76 647.13 1095.65 648.72C1097.55 650.29 1099.34 652.23 1100.63 654.45C1101.94 656.66 1102.79 659.04 1103.35 661.38C1103.87 663.77 1104.06 665.96 1104.22 668.22C1104.63 675.71 1103.56 684.24 1105.78 691.52C1103.4 683.72 1110.01 673.57 1112.27 666.43C1114.24 660.18 1115.52 653.74 1117.43 647.49C1118.67 643.45 1119.04 641.09 1116.42 634.63C1113.8 628.17 1116.87 626.36 1118.68 617.09C1120.5 607.82 1116.41 597.62 1111.26 591.13C1106.1 584.64 1099.38 582.02 1087.87 570.54C1076.37 559.07 1055.79 556.09 1046.18 554.1C1036.58 552.12 1018.49 552.55 1007.45 556.63C996.41 560.71 981.44 568.28 972.56 575.6C963.67 582.91 959.13 594.17 951.26 601.17C943.25 608.29 953.08 611.26 959.23 612.82C962.63 613.68 966.03 614.36 969.42 614.9Z" />
			<path id="&lt;Path&gt;" class="shp0" d="M1398.27 949.11C1397.91 950.88 1397.54 952.66 1397.01 954.41C1397.08 954.36 1397.14 954.3 1397.22 954.25C1400.28 952 1403.47 950.1 1406.51 948.06C1409.56 946.01 1412.47 943.81 1415.05 941.19L1415.23 941.34C1416.63 939.68 1418.98 936.81 1420.12 935.06C1421.8 932.48 1419.91 930.13 1416.15 925.43C1412.97 921.47 1411.75 917.56 1411.44 916.42C1411.16 917.47 1410.83 918.43 1410.46 919.33C1410.06 920.52 1409.59 921.62 1409.06 922.66C1408.6 923.76 1408.1 924.81 1407.52 925.81C1407.03 926.88 1406.42 927.86 1405.65 928.78C1404.94 929.74 1404.04 930.62 1403.18 931.55C1402.37 932.5 1401.57 933.48 1400.99 934.56C1400.44 935.65 1400.03 936.8 1399.72 937.99C1399.44 939.18 1399.32 940.44 1399.21 941.69C1399.11 944.23 1398.84 946.71 1398.27 949.11Z" />
			<path id="&lt;Path&gt;" class="shp0" d="M1384.68 817.18C1384.85 822.5 1384.98 828.08 1386.7 833.31C1387.59 835.89 1388.72 838.43 1390.04 840.87C1391.31 843.34 1392.81 845.69 1394.33 848.01C1398.91 854.65 1404.64 862.7 1411.65 867.02C1417.23 870.45 1422.33 873.5 1427.43 877.6C1434.5 883.27 1442.63 886.58 1451.69 887.16C1460.65 887.72 1470.24 884.6 1479.36 884.16C1491.38 883.59 1504.37 882.58 1515.72 887.4C1522.68 890.36 1537.84 901.92 1540.42 909.22C1537.17 900.03 1534.4 889.58 1527.29 882.48C1520.37 875.56 1511.12 871.93 1504.29 864.49C1500.02 859.81 1496.53 854.49 1493.52 848.97C1492.81 847.57 1492.06 846.19 1491.38 844.77C1490.74 843.33 1490.08 841.91 1489.5 840.46C1488.95 838.98 1488.43 837.5 1487.95 836.02L1486.65 831.51C1485.11 825.45 1483.83 819.45 1482.6 813.41C1481.39 807.38 1479.86 801.2 1479.85 794.81C1479.84 788.44 1481.46 782.08 1484.05 776.25C1486.61 770.71 1490.19 765.62 1494.81 761.77C1486.36 764.55 1473.28 763.55 1463.92 763.43C1454.23 763.3 1435.28 774.53 1429 775.79C1421.96 777.2 1415.05 779.4 1408.19 781.48C1404.97 782.47 1401.07 782.94 1398.69 785.42C1396.17 788.03 1395.19 791.81 1392.79 794.52C1389.88 797.82 1387.26 801.38 1385.51 805.44C1383.89 809.19 1384.55 813.16 1384.68 817.18Z" />
			<path id="&lt;Path&gt;" class="shp0" d="M1759.49 838.99C1756.09 835.94 1752.97 832.59 1750.13 829.03C1747.3 825.46 1744.93 821.55 1742.68 817.61C1741.56 815.63 1740.46 813.64 1739.51 811.57C1738.53 809.5 1737.75 807.43 1736.86 805.29C1735.21 801.01 1733.44 796.74 1732.5 792.12C1732.04 789.8 1731.77 787.35 1731.98 784.85C1732.18 782.31 1732.83 779.92 1733.68 777.72C1734.56 775.51 1735.7 773.44 1737.08 771.54C1738.43 769.63 1739.92 767.81 1741.6 766.15C1743.28 764.49 1745.12 762.94 1747.21 761.71C1747.48 761.55 1747.77 761.41 1748.05 761.25C1746.95 761.4 1745.78 761.5 1744.49 761.53C1735.39 761.68 1727.63 762.15 1721.11 759.51C1714.59 756.87 1714.55 759.11 1709.65 757.68C1704.75 756.26 1686.84 756.72 1652.11 755.57C1617.37 754.41 1596.53 751.84 1581.17 751.74C1565.8 751.65 1551.49 750.97 1537.3 752.23C1530 752.88 1521.27 753.34 1514.64 756.64C1508.74 759.58 1506.05 765.07 1501.05 769.11C1492.76 775.81 1488.41 780.11 1486.59 790.57C1486.41 792 1486.12 793.43 1485.9 794.87C1484.99 800.61 1484.14 806.66 1484.89 812.64C1485.62 818.61 1487.57 824.4 1490.3 829.74L1492.41 833.7C1493.18 834.98 1493.92 836.27 1494.64 837.57C1495.44 838.82 1496.16 840.11 1496.92 841.38L1499.28 845.11C1506.71 856.37 1522.22 864.9 1534.21 870.54C1542.85 874.61 1552.05 877.63 1561.53 878.94C1572.38 880.43 1580.56 878 1590.81 874.58C1608.48 868.69 1625.4 860.25 1643.5 855.69C1654.93 852.81 1666.54 850.75 1678.14 848.69C1687.44 847.04 1693.54 845.98 1702.07 850.99C1706.45 853.57 1709.75 858.04 1714.19 860.45C1708.27 857.43 1705.5 849.91 1701.71 844.85C1699.64 842.07 1697.53 840.26 1694.63 838.47C1691.27 836.4 1689.39 834.13 1686.99 830.74C1685.83 828.97 1684.84 827.08 1683.84 825.21C1682.95 823.28 1682.23 821.27 1681.56 819.25C1680.97 817.21 1680.54 815.11 1680.07 813.04C1679.73 810.94 1679.5 808.82 1679.33 806.71C1679.31 804.58 1679.52 802.44 1679.63 800.36C1679.96 798.25 1680.24 796.19 1680.45 794.14C1680.84 792.11 1681.01 790.06 1681.24 788.01C1681.62 785.99 1681.6 783.86 1681.89 781.76C1682.24 779.69 1682.42 777.49 1683.11 775.46C1684.41 771.35 1686.88 767.73 1689.67 764.54C1691.19 763.04 1692.65 761.5 1694.37 760.25C1696.12 759.04 1697.92 757.93 1699.84 757.03L1700.32 757.57C1699.37 759.51 1698.31 761.23 1697.2 762.86C1696.18 764.57 1695.26 766.3 1694.2 767.9C1693.64 768.68 1693.25 769.57 1692.79 770.4C1692.33 771.24 1691.88 772.08 1691.39 772.89C1690.87 773.68 1690.52 774.56 1690.08 775.4C1689.65 776.24 1689.17 777.06 1688.65 777.86C1688.07 778.65 1687.67 779.51 1687.19 780.36L1685.71 782.91C1684.75 784.64 1684.12 786.52 1683.54 788.42C1683.07 790.34 1682.99 792.33 1682.88 794.29C1682.94 796.27 1683.29 798.25 1683.58 800.18C1684.08 802.1 1684.64 803.99 1685.07 805.86C1685.71 807.7 1686.15 809.56 1686.71 811.39C1689 817.25 1691.68 822.29 1697.05 825.96C1700.21 828.12 1703.68 829.78 1706.55 832.37C1707.93 833.61 1709.1 834.67 1710.78 835.59C1719.22 840.24 1727.16 838.38 1736.19 837.28C1744.79 836.24 1754.45 838.04 1760.96 840.26C1760.47 839.84 1759.97 839.42 1759.49 838.99Z" />
			<path id="&lt;Path&gt;" class="shp0" d="M1412.58 910.57C1410.89 911.27 1409.13 911.71 1407.36 912.07C1403.83 912.74 1400.27 912.98 1396.74 912.99C1394.97 912.99 1393.21 912.95 1391.46 912.86L1388.84 912.68C1387.96 912.6 1387.02 912.45 1386.11 912.33C1385.2 912.19 1384.26 912.12 1383.36 911.9L1380.67 911.22C1378.84 910.83 1377.17 910.06 1375.44 909.45C1368.58 906.69 1362.75 902.31 1357.43 897.73C1354.76 895.42 1352.2 893.04 1349.82 890.51C1347.39 888.01 1345.18 885.35 1342.91 882.76C1338.44 877.5 1333.78 872.54 1328.39 868.29C1323.03 863.93 1317.38 859.61 1312.87 853.99C1311.7 852.63 1310.76 851.08 1309.76 849.59C1308.87 848.01 1307.97 846.44 1307.26 844.76C1305.76 841.44 1304.71 837.89 1304.12 834.27C1303.66 831.21 1303.66 828.09 1304.07 825.04C1303.57 825.53 1303.06 825.99 1302.54 826.38C1300.96 827.63 1299.36 828.67 1297.82 829.7C1296.23 830.74 1294.93 831.61 1293.5 832.8C1292.08 833.9 1290.66 835.01 1289.33 836.22L1287.31 837.99L1285.38 839.86C1282.76 842.29 1280.37 844.95 1278.11 847.7C1273.6 853.21 1269.83 859.25 1266.81 865.69C1263.78 872.11 1261.53 878.98 1260.24 886.1C1259.97 887.89 1259.7 889.68 1259.48 891.48C1259.36 893.29 1259.18 895.11 1259.09 896.92C1259 900.52 1259.18 904.14 1260.43 907.37C1261.72 910.58 1264.15 913.31 1266.68 915.99C1267.94 917.34 1269.22 918.69 1270.47 920.08C1271.72 921.48 1273 923.01 1273.95 924.76C1275.96 928.3 1276.1 932.6 1275.9 936.29C1275.71 940.04 1275.48 943.6 1275.92 947.1C1276.73 954.12 1279.52 960.75 1283.55 966.39C1285.64 969.23 1287.78 971.78 1290.43 973.43C1293.06 975.13 1296.13 976.08 1299.58 976.67C1303.02 977.26 1306.78 977.63 1310.66 978.44C1311.65 978.65 1312.54 978.87 1313.63 979.16C1319.1 980.8 1323.17 982.97 1329.11 982.04C1334.79 981.14 1339.92 978.23 1345.46 976.84C1356.47 974.1 1364.16 971.38 1373.55 965.1C1382.93 958.81 1389.34 949.68 1395.47 940.4C1396.93 938.26 1398.15 936.09 1398.83 933.68C1399.21 932.49 1399.39 931.21 1399.55 929.9C1399.75 928.61 1399.92 927.27 1400.29 926.02C1400.7 924.78 1401.29 923.61 1401.99 922.53C1402.74 921.45 1403.56 920.43 1404.43 919.46C1405.38 918.53 1406.38 917.66 1407.46 916.88C1408.62 916.18 1409.81 915.52 1411.15 915.09L1411.57 915.5C1412.57 913.07 1414.05 910.8 1415.25 909.17C1414.41 909.72 1413.5 910.18 1412.58 910.57Z" />
		</g>
	</g>
</svg>